<?xml version="1.0" encoding="iso-8859-1"?>
<!-- Generator: Adobe Illustrator 19.0.0, SVG Export Plug-In . SVG Version: 6.00 Build 0)  -->
<svg version="1.1" id="Layer_1" xmlns="http://www.w3.org/2000/svg" xmlns:xlink="http://www.w3.org/1999/xlink" x="0px" y="0px"
	 viewBox="0 0 512 512" style="enable-background:new 0 0 512 512;" xml:space="preserve">
<g>
	<g>
		<circle cx="212.293" cy="106.146" r="106.146"/>
	</g>
</g>
<g>
	<g>
		<path d="M399.61,337.171c-48.277,0-87.415,39.137-87.415,87.415c0,48.278,39.138,87.415,87.415,87.415
			c48.275,0,87.415-39.137,87.415-87.415C487.024,376.307,447.885,337.171,399.61,337.171z M449.561,443.317h-31.219v31.219h-37.463
			v-31.219h-31.22v-37.463h31.22v-31.219h37.463v31.219h31.219V443.317z"/>
	</g>
</g>
<g>
	<g>
		<path d="M372.595,302.659c-32.832-54.167-92.336-90.367-160.302-90.367c-103.451,0-187.317,83.866-187.317,187.317
			c0,27.587,22.366,49.951,49.951,49.951h202.316c-1.646-8.072-2.511-16.424-2.511-24.976
			C274.732,365.001,316.681,315.039,372.595,302.659z"/>
	</g>
</g>
<g>
</g>
<g>
</g>
<g>
</g>
<g>
</g>
<g>
</g>
<g>
</g>
<g>
</g>
<g>
</g>
<g>
</g>
<g>
</g>
<g>
</g>
<g>
</g>
<g>
</g>
<g>
</g>
<g>
</g>
</svg>
