<?xml version='1.0' encoding='utf-8'?>
<!DOCTYPE svg PUBLIC '-//W3C//DTD SVG 1.1//EN' 'http://www.w3.org/Graphics/SVG/1.1/DTD/svg11.dtd'>
<svg version="1.1" xmlns="http://www.w3.org/2000/svg" viewBox="0 0 512 512" xmlns:xlink="http://www.w3.org/1999/xlink" enable-background="new 0 0 512 512">
  <g>
    <path d="m400.1,38.6c-17.7-17.7-40.6-27-64.5-27h-160.2c-49.9,0-90.5,40.6-90.5,90.5 0,6.2 4.2,10.4 10.4,10.4h149.8v310.9c0,3.1 2.1,6.2 4.2,8.3l80.1,66.6c4.3,3.9 8.5,4.5 13.5,1l80.1-66.6c3.1-2.1 4.2-5.2 4.2-8.3v-321.3c-0.1-24.9-10.5-47.8-27.1-64.5zm-294.4,53.1c5.2-33.3 35.4-59.3 69.7-59.3 34.3,0 63.5,26 68.7,59.3h-138.4zm299.6,326.5l-69.7,58.2-69.7-58.2v-316.1c0-28-12.8-53.1-32.8-69.7h102.5c17.7,0 35.4,7.3 48.9,20.8 13.5,12.5 20.8,30.2 20.8,48.9v316.1z"/>
  </g>
</svg>
