<?xml version="1.0" encoding="iso-8859-1"?>
<!-- Generator: Adobe Illustrator 16.0.0, SVG Export Plug-In . SVG Version: 6.00 Build 0)  -->
<!DOCTYPE svg PUBLIC "-//W3C//DTD SVG 1.1//EN" "http://www.w3.org/Graphics/SVG/1.1/DTD/svg11.dtd">
<svg version="1.1" id="Capa_1" xmlns="http://www.w3.org/2000/svg" xmlns:xlink="http://www.w3.org/1999/xlink" x="0px" y="0px"
	 width="792px" height="792px" viewBox="0 0 792 792" style="enable-background:new 0 0 792 792;" xml:space="preserve">
<g>
	<g>
		<path d="M659.277,792c-9.004,0-17.707-3.271-24.459-9.213l-238.825-195.39l-239.152,195.69c-6.4,5.641-15.076,8.912-24.08,8.912
			c-20.429,0-37.037-16.62-37.037-37.036V84.856C95.725,38.07,133.808,0,180.607,0h430.799c46.799,0,84.869,38.07,84.869,84.856
			V754.95C696.287,775.38,679.68,792,659.277,792z M395.993,557.402c2.944,0,5.876,0.981,8.284,2.957l247.463,202.47
			c7.615,6.675,18.361,0.798,18.361-7.865V84.856c0.012-32.352-26.318-58.683-58.695-58.683H180.607
			c-32.364,0-58.708,26.331-58.708,58.683V754.95c0,5.994,4.868,10.862,10.862,10.862c3.376,0,5.745-1.465,7.158-2.695
			l247.79-202.771C390.117,558.384,393.062,557.402,395.993,557.402z"/>
	</g>
</g>
<g>
</g>
<g>
</g>
<g>
</g>
<g>
</g>
<g>
</g>
<g>
</g>
<g>
</g>
<g>
</g>
<g>
</g>
<g>
</g>
<g>
</g>
<g>
</g>
<g>
</g>
<g>
</g>
<g>
</g>
</svg>
