<svg viewBox="0 0 512 512" xmlns="http://www.w3.org/2000/svg"><path d="m436.949219 74.980469c-48.34375-48.351563-112.621094-74.980469-180.988281-74.980469-60.582032 0-119.351563 21.554688-165.484376 60.691406-3.160156 2.679688-3.546874 7.414063-.867187 10.570313 2.679687 3.160156 7.414063 3.546875 10.570313.867187 43.425781-36.839844 98.75-57.128906 155.78125-57.128906 64.359374 0 124.871093 25.066406 170.382812 70.585938 45.511719 45.519531 70.574219 106.042968 70.574219 170.414062 0 64.375-25.0625 124.894531-70.574219 170.414062-45.511719 45.515626-106.023438 70.585938-170.382812 70.585938-64.363282 0-124.875-25.066406-170.386719-70.585938-45.511719-45.519531-70.574219-106.039062-70.574219-170.414062 0-57.242188 20.414062-112.726562 57.480469-156.230469 2.6875-3.152343 2.308593-7.886719-.84375-10.574219-3.152344-2.683593-7.886719-2.304687-10.574219.847657-39.375 46.214843-61.0625 105.152343-61.0625 165.957031 0 68.378906 26.625 132.667969 74.96875 181.019531 48.34375 48.351563 112.621094 74.980469 180.992188 74.980469 68.367187 0 132.644531-26.628906 180.988281-74.980469 48.34375-48.351562 74.96875-112.640625 74.96875-181.019531s-26.625-132.667969-74.96875-181.019531zm0 0"/><path d="m337.769531 204.296875c4.144531 0 7.5-3.359375 7.5-7.5v-52.09375c0-15.359375-12.492187-27.855469-27.851562-27.855469h-123.617188c-15.359375 0-27.855469 12.496094-27.855469 27.855469v222.59375c0 15.359375 12.496094 27.855469 27.855469 27.855469h123.617188c15.359375 0 27.851562-12.496094 27.851562-27.855469v-132.71875c0-4.144531-3.355469-7.5-7.5-7.5-4.140625 0-7.5 3.355469-7.5 7.5v116.121094h-149.324219v-189.398438h149.324219v35.496094c0 4.140625 3.359375 7.5 7.5 7.5zm-7.5 161.402344v1.597656c0 7.089844-5.765625 12.855469-12.851562 12.855469h-123.617188c-7.085937 0-12.855469-5.765625-12.855469-12.855469v-1.597656zm-149.324219-219.398438v-1.597656c0-7.089844 5.769532-12.855469 12.855469-12.855469h123.617188c7.085937 0 12.851562 5.765625 12.851562 12.855469v1.597656zm0 0"/><path d="m147.523438 311.289062v-124.652343c0-4.140625-3.359376-7.5-7.5-7.5-4.140626 0-7.5 3.359375-7.5 7.5v124.652343c0 4.144532 3.359374 7.5 7.5 7.5 4.140624 0 7.5-3.355468 7.5-7.5zm0 0"/><path d="m114.25 274.453125v-50.980469c0-4.140625-3.359375-7.5-7.5-7.5-4.144531 0-7.5 3.359375-7.5 7.5v50.980469c0 4.144531 3.355469 7.5 7.5 7.5 4.140625 0 7.5-3.355469 7.5-7.5zm0 0"/><path d="m379.394531 311.289062v-124.652343c0-4.140625-3.359375-7.5-7.5-7.5s-7.5 3.359375-7.5 7.5v124.652343c0 4.144532 3.359375 7.5 7.5 7.5s7.5-3.355468 7.5-7.5zm0 0"/><path d="m412.667969 274.453125v-50.980469c0-4.140625-3.355469-7.5-7.5-7.5-4.140625 0-7.5 3.359375-7.5 7.5v50.980469c0 4.144531 3.359375 7.5 7.5 7.5 4.144531 0 7.5-3.355469 7.5-7.5zm0 0"/></svg>