<?xml version="1.0" encoding="iso-8859-1"?>
<!-- Generator: Adobe Illustrator 19.0.0, SVG Export Plug-In . SVG Version: 6.00 Build 0)  -->
<svg version="1.1" id="Layer_1" xmlns="http://www.w3.org/2000/svg" xmlns:xlink="http://www.w3.org/1999/xlink" x="0px" y="0px"
	 viewBox="0 0 512 512" style="enable-background:new 0 0 512 512;" xml:space="preserve">
<g>
	<g>
		<path d="M437.019,74.981C388.668,26.629,324.38,0.001,256,0.001S123.332,26.629,74.98,74.981C26.629,123.333,0,187.621,0,256.001
			s26.629,132.668,74.98,181.019c48.352,48.351,112.64,74.98,181.02,74.98c68.381,0,132.668-26.629,181.019-74.98
			C485.371,388.667,512,324.379,512,255.999S485.371,123.333,437.019,74.981z M256,477.453
			c-122.109,0-221.453-99.343-221.453-221.453S133.891,34.548,256,34.548s221.453,99.343,221.453,221.453
			S378.109,477.453,256,477.453z"/>
	</g>
</g>
<g>
	<g>
		<path d="M393.953,160.709c-21.906-21.904-57.355-21.906-79.264-0.001l-89.238,89.239l-28.14-28.141
			c-21.903-21.903-57.354-21.906-79.262,0c-21.852,21.852-21.853,57.408,0,79.26l67.772,67.772
			c10.586,10.586,24.66,16.416,39.631,16.416s29.045-5.83,39.631-16.415l128.87-128.87
			C415.805,218.118,415.805,182.561,393.953,160.709z M369.522,215.541L240.653,344.41c-4.061,4.06-9.459,6.297-15.202,6.297
			s-11.142-2.237-15.202-6.297l-67.771-67.772c-8.383-8.383-8.383-22.022,0-30.403c8.402-8.401,22-8.404,30.404,0l40.355,40.355
			c3.239,3.239,7.633,5.059,12.214,5.059s8.975-1.82,12.214-5.059l101.453-101.453c8.402-8.401,22.002-8.404,30.404,0
			C377.906,193.52,377.906,207.159,369.522,215.541z"/>
	</g>
</g>
<g>
</g>
<g>
</g>
<g>
</g>
<g>
</g>
<g>
</g>
<g>
</g>
<g>
</g>
<g>
</g>
<g>
</g>
<g>
</g>
<g>
</g>
<g>
</g>
<g>
</g>
<g>
</g>
<g>
</g>
</svg>
