<?xml version="1.0" encoding="iso-8859-1"?>
<!-- Generator: Adobe Illustrator 19.0.0, SVG Export Plug-In . SVG Version: 6.00 Build 0)  -->
<svg version="1.1" id="Capa_1" xmlns="http://www.w3.org/2000/svg" xmlns:xlink="http://www.w3.org/1999/xlink" x="0px" y="0px"
	 viewBox="0 0 512 512" style="enable-background:new 0 0 512 512;" xml:space="preserve">
<g>
	<g>
		<path d="M336,25c-4.143,0-7.5,3.358-7.5,7.5c0,26.191-21.309,47.5-47.5,47.5h-50c-26.191,0-47.5-21.309-47.5-47.5
			c0-4.142-3.358-7.5-7.5-7.5c-4.142,0-7.5,3.358-7.5,7.5c0,31.923,24.063,58.315,55,62.034v149.375c0,4.142,3.358,7.5,7.5,7.5
			c4.142,0,7.5-3.358,7.5-7.5V170h35v73.909c0,4.142,3.357,7.5,7.5,7.5s7.5-3.358,7.5-7.5V94.534c30.937-3.719,55-30.111,55-62.034
			C343.5,28.358,340.143,25,336,25z M273.5,155h-35V95h35V155z"/>
	</g>
</g>
<g>
	<g>
		<path d="M256,0c-17.92,0-32.5,14.58-32.5,32.5S238.08,65,256,65c17.92,0,32.5-14.58,32.5-32.5S273.92,0,256,0z M256,50
			c-9.649,0-17.5-7.851-17.5-17.5S246.351,15,256,15c9.65,0,17.5,7.851,17.5,17.5S265.65,50,256,50z"/>
	</g>
</g>
<g>
	<g>
		<path d="M509.745,409.208l-93.316-91.281c-2.909-2.847-7.559-2.852-10.476-0.013l-24.576,23.926
			c-2.968,2.89-3.032,7.638-0.143,10.605c2.889,2.968,7.637,3.032,10.605,0.143l19.332-18.82L497,417.724v68.948L261.245,256.06
			c-2.917-2.852-7.575-2.851-10.489,0L15,486.673l0.001-68.949l85.829-83.957l19.334,18.822c2.967,2.889,7.715,2.827,10.605-0.142
			c2.889-2.968,2.826-7.716-0.142-10.606l-24.579-23.928c-2.917-2.839-7.565-2.834-10.476,0.013L2.256,409.208
			c-1.442,1.411-2.255,3.343-2.255,5.361L0,504.5c0,1.989,0.79,3.896,2.197,5.303C3.603,511.21,5.511,512,7.5,512h497
			c4.143,0,7.5-3.358,7.5-7.5v-89.931C512,412.552,511.187,410.618,509.745,409.208z M256,271.913l98.367,96.221l-44.239,43.068
			l-48.971-46.378c-2.893-2.739-7.422-2.739-10.314,0l-48.97,46.378l-44.239-43.068L256,271.913z M25.894,497l121.014-118.374
			l49.663,48.348c2.882,2.806,7.466,2.838,10.389,0.071L256,380.598l49.042,46.446c1.447,1.371,3.303,2.055,5.157,2.055
			c1.889,0,3.777-0.71,5.231-2.126l49.662-48.347L486.108,497H25.894z"/>
	</g>
</g>
<g>
	<g>
		<path d="M125.817,141.867h-50c-26.191,0-47.5-21.309-47.5-47.5c0-4.142-3.358-7.5-7.5-7.5c-4.142,0-7.5,3.358-7.5,7.5
			c0,31.923,24.063,58.315,55,62.035v149.375c0,4.142,3.358,7.5,7.5,7.5c4.142,0,7.5-3.358,7.5-7.5v-73.909h35v73.909
			c0,4.142,3.358,7.5,7.5,7.5c4.142,0,7.5-3.358,7.5-7.5V157.465c22.64,3.607,40,23.263,40,46.902c0,4.142,3.358,7.5,7.5,7.5
			c4.142,0,7.5-3.358,7.5-7.5C188.317,169.905,160.279,141.867,125.817,141.867z M118.317,216.867h-35v-60h35V216.867z"/>
	</g>
</g>
<g>
	<g>
		<path d="M100.817,61.867c-17.92,0-32.5,14.58-32.5,32.5s14.579,32.5,32.5,32.5c17.92,0,32.5-14.58,32.5-32.5
			S118.737,61.867,100.817,61.867z M100.817,111.867c-9.649,0-17.5-7.851-17.5-17.5s7.85-17.5,17.5-17.5
			c9.649,0,17.5,7.851,17.5,17.5S110.466,111.867,100.817,111.867z"/>
	</g>
</g>
<g>
	<g>
		<path d="M491.183,86.868c-4.143,0-7.5,3.358-7.5,7.5c0,26.191-21.309,47.5-47.5,47.5h-50v-0.001c-34.463,0-62.5,28.038-62.5,62.5
			c0,4.142,3.357,7.5,7.5,7.5s7.5-3.358,7.5-7.5c0-23.639,17.36-43.295,40-46.902v148.312c0,4.142,3.357,7.5,7.5,7.5
			s7.5-3.358,7.5-7.5v-73.909h35v73.909c0,4.142,3.357,7.5,7.5,7.5s7.5-3.358,7.5-7.5V156.402c30.937-3.719,55-30.111,55-62.034
			C498.683,90.226,495.326,86.868,491.183,86.868z M428.683,216.867h-35v-60h35V216.867z"/>
	</g>
</g>
<g>
	<g>
		<path d="M411.183,61.867c-17.921,0-32.5,14.58-32.5,32.5s14.579,32.5,32.5,32.5c17.921,0,32.5-14.58,32.5-32.5
			S429.104,61.867,411.183,61.867z M411.183,111.867c-9.649,0-17.5-7.851-17.5-17.5s7.851-17.5,17.5-17.5
			c9.649,0,17.5,7.851,17.5,17.5S420.832,111.867,411.183,111.867z"/>
	</g>
</g>
<g>
</g>
<g>
</g>
<g>
</g>
<g>
</g>
<g>
</g>
<g>
</g>
<g>
</g>
<g>
</g>
<g>
</g>
<g>
</g>
<g>
</g>
<g>
</g>
<g>
</g>
<g>
</g>
<g>
</g>
</svg>
