<?xml version="1.0" encoding="iso-8859-1"?>
<!-- Generator: Adobe Illustrator 19.0.0, SVG Export Plug-In . SVG Version: 6.00 Build 0)  -->
<svg version="1.1" id="Capa_1" xmlns="http://www.w3.org/2000/svg" xmlns:xlink="http://www.w3.org/1999/xlink" x="0px" y="0px"
	 viewBox="0 0 512 512" style="enable-background:new 0 0 512 512;" xml:space="preserve">
<g>
	<g>
		<g>
			<path d="M465.067,307.2h-8.533v-68.267c0.068-29.522-13.789-57.348-37.39-75.084c-23.601-17.736-54.183-23.305-82.521-15.028
				c-0.929-6.542-3.739-12.673-8.09-17.647V85.811c1.668-20.19-4.746-40.217-17.835-55.68C293.171,10.138,264.721,0,226.133,0
				c-38.588,0-67.038,10.138-84.565,30.131c-13.087,15.464-19.502,35.49-17.835,55.68v45.363c-5.475,6.19-8.508,14.162-8.533,22.426
				v34.133c0.006,10.324,4.695,20.088,12.749,26.547c5.898,22.319,16.057,43.286,29.918,61.747v28.271
				c0.018,8.246-4.509,15.831-11.776,19.729l-76.117,41.566c-24.722,13.486-40.105,39.397-40.107,67.558v36.181
				c0,4.713,3.82,8.533,8.533,8.533h210.645c9.875,20.819,30.845,34.102,53.888,34.133H422.4
				c32.974-0.038,59.696-26.759,59.733-59.733v-128C482.133,314.841,474.492,307.2,465.067,307.2z M362.667,162.133
				c42.415,0,76.8,34.385,76.8,76.8V307.2h-153.6v-68.267C285.867,196.518,320.251,162.133,362.667,162.133z M243.2,324.267v128
				c0.024,2.857,0.252,5.709,0.683,8.533H46.933v-27.648c0.01-21.914,11.984-42.074,31.223-52.565l76.066-41.54
				c12.782-6.878,20.741-20.233,20.71-34.748v-31.232c0.001-2.003-0.703-3.942-1.988-5.478
				c-13.821-17.813-23.744-38.333-29.124-60.228c-0.487-2.159-1.801-4.04-3.661-5.239c-4.906-3.142-7.879-8.561-7.893-14.387V153.6
				c0.011-4.829,2.093-9.421,5.717-12.612c1.792-1.617,2.815-3.918,2.816-6.332V85.333c0-0.374-0.025-0.747-0.077-1.118
				c-1.264-15.52,3.642-30.912,13.653-42.837c14.165-16.137,38.298-24.311,71.757-24.311c33.331,0,57.421,8.124,71.578,24.141
				c10.039,11.986,15.002,27.417,13.833,43.008c-0.051,0.37-0.077,0.744-0.077,1.118v49.323c0.001,2.414,1.024,4.714,2.816,6.332
				c3.625,3.191,5.706,7.783,5.717,12.612v1.826c-31.389,16.018-51.162,48.267-51.2,83.507V307.2h-8.533
				C250.841,307.2,243.2,314.841,243.2,324.267z M465.067,341.333h-25.6c-4.713,0-8.533,3.82-8.533,8.533s3.82,8.533,8.533,8.533
				h25.6v17.067h-25.6c-4.713,0-8.533,3.82-8.533,8.533s3.82,8.533,8.533,8.533h25.6V409.6h-25.6c-4.713,0-8.533,3.82-8.533,8.533
				s3.82,8.533,8.533,8.533h25.6v17.067h-25.6c-4.713,0-8.533,3.821-8.533,8.533c0,4.713,3.82,8.533,8.533,8.533h24.747
				c-4.083,19.852-21.546,34.108-41.813,34.133H302.933c-20.268-0.026-37.731-14.281-41.813-34.133h24.747
				c4.713,0,8.533-3.821,8.533-8.533c0-4.713-3.821-8.533-8.533-8.533h-25.6v-17.067h25.6c4.713,0,8.533-3.82,8.533-8.533
				s-3.821-8.533-8.533-8.533h-25.6v-17.067h25.6c4.713,0,8.533-3.82,8.533-8.533s-3.821-8.533-8.533-8.533h-25.6V358.4h25.6
				c4.713,0,8.533-3.82,8.533-8.533s-3.821-8.533-8.533-8.533h-25.6v-17.067h204.8V341.333z"/>
			<path d="M354.133,416.563V435.2c0,4.713,3.82,8.533,8.533,8.533s8.533-3.82,8.533-8.533v-18.637
				c11.747-4.137,18.796-16.144,16.686-28.418c-2.11-12.274-12.765-21.236-25.219-21.212c-12.454-0.024-23.109,8.939-25.219,21.212
				C335.337,400.419,342.387,412.426,354.133,416.563z M362.667,384c4.713,0,8.533,3.821,8.533,8.533
				c0,4.713-3.82,8.533-8.533,8.533s-8.533-3.821-8.533-8.533C354.133,387.821,357.954,384,362.667,384z"/>
		</g>
	</g>
</g>
<g>
</g>
<g>
</g>
<g>
</g>
<g>
</g>
<g>
</g>
<g>
</g>
<g>
</g>
<g>
</g>
<g>
</g>
<g>
</g>
<g>
</g>
<g>
</g>
<g>
</g>
<g>
</g>
<g>
</g>
</svg>
