<svg height="511pt" viewBox="-64 0 511 511.89817" width="511pt" xmlns="http://www.w3.org/2000/svg"><path d="m171.121094 144.964844c13.804687-.003906 26.246094-8.320313 31.53125-21.070313 5.28125-12.753906 2.363281-27.433593-7.398438-37.195312-13.5-12.902344-34.761718-12.902344-48.265625 0-9.757812 9.761719-12.675781 24.441406-7.394531 37.195312 5.28125 12.75 17.726562 21.066407 31.527344 21.070313zm-12.066406-46.199219c4.285156-4.4375 10.632812-6.214844 16.597656-4.65625 5.96875 1.5625 10.628906 6.222656 12.191406 12.191406 1.5625 5.964844-.21875 12.3125-4.65625 16.597657-6.75 6.449218-17.378906 6.449218-24.132812 0-6.660157-6.664063-6.660157-17.46875 0-24.132813zm0 0"/><path d="m142.210938 2.398438-139.261719 139.347656c-3.332031 3.332031-3.332031 8.734375 0 12.066406l104.839843 104.832031c-.660156.507813-1.265624 1.082031-1.808593 1.707031-2.425781 2.804688-3.515625 6.519532-2.988281 10.191407l31.503906 219.40625c1.902344 12.59375 12.703125 21.914062 25.4375 21.949219h141.84375c12.742187-.035157 23.546875-9.371094 25.4375-21.972657l26.957031-187.734375 12.800781 40.191406c1.117188 3.554688 4.40625 5.96875 8.128906 5.972657.871094-.007813 1.734376-.140625 2.5625-.398438 2.15625-.6875 3.953126-2.207031 4.992188-4.21875s1.234375-4.351562.546875-6.507812l-35.398437-111.285157 13.765624-4.625c4.476563-1.496093 6.890626-6.34375 5.390626-10.820312-1.496094-4.476562-6.339844-6.890625-10.820313-5.390625l-13.507813 4.539063-34.542968-108.535157c-.925782-2.90625-3.328125-5.097656-6.308594-5.75-2.976562-.652343-6.078125.335938-8.132812 2.589844-2.050782 2.253906-2.746094 5.433594-1.820313 8.339844l15.699219 49.347656-153.242188-153.242187c-3.386718-3.199219-8.683594-3.199219-12.074218 0zm6.042968 18.109374 164.394532 164.394532-71.074219 70.996094h-19.25v-76.800782c0-4.710937-3.820313-8.53125-8.535157-8.53125h-93.867187v-42.667968c0-4.714844-3.820313-8.535157-8.53125-8.535157h-61.9375zm-115.859375 115.921876h70.460938v34.136718h-8.53125c-4.714844 0-8.535157 3.820313-8.535157 8.53125 0 4.714844 3.820313 8.535156 8.535157 8.535156h110.929687v68.265626h-76.082031l-108.117187-108.117188zm277.921875 351.070312c-.644531 4.214844-4.269531 7.328125-8.53125 7.332031h-18.875l16.210938-169.8125c.460937-4.714843-2.988282-8.90625-7.699219-9.367187-4.714844-.460938-8.90625 2.988281-9.367187 7.703125l-16.289063 171.476562h-26.375v-170.667969c0-4.710937-3.820313-8.53125-8.535156-8.53125-4.710938 0-8.53125 3.820313-8.53125 8.53125v170.667969h-26.378907l-16.289062-171.476562c-.460938-4.714844-4.652344-8.164063-9.367188-7.703125-4.710937.460937-8.160156 4.652344-7.699218 9.367187l16.210937 169.8125h-18.867187c-4.261719-.003906-7.882813-3.117187-8.53125-7.332031l-30.824219-214.535156h220.554687zm29.109375-231.601562h-73.703125l55.929688-55.867188zm0 0"/></svg>