<?xml version="1.0" encoding="iso-8859-1"?>
<!-- Generator: Adobe Illustrator 19.0.0, SVG Export Plug-In . SVG Version: 6.00 Build 0)  -->
<svg version="1.1" id="Capa_1" xmlns="http://www.w3.org/2000/svg" xmlns:xlink="http://www.w3.org/1999/xlink" x="0px" y="0px"
	 viewBox="0 0 512 512" style="enable-background:new 0 0 512 512;" xml:space="preserve">
<g>
	<g>
		<rect x="250.47" y="320.53" width="91.05" height="15"/>
	</g>
</g>
<g>
	<g>
		<rect x="225.47" y="320.53" width="15" height="15"/>
	</g>
</g>
<g>
	<g>
		<rect x="200.47" y="320.53" width="15" height="15"/>
	</g>
</g>
<g>
	<g>
		<rect x="286.33" y="352.06" width="55.19" height="15"/>
	</g>
</g>
<g>
	<g>
		<rect x="170.47" y="352.06" width="101.19" height="15"/>
	</g>
</g>
<g>
	<g>
		<rect x="171" y="383.59" width="140.02" height="15"/>
	</g>
</g>
<g>
	<g>
		<rect x="422.74" y="50" width="15" height="15"/>
	</g>
</g>
<g>
	<g>
		<rect x="447.74" y="50" width="15" height="15"/>
	</g>
</g>
<g>
	<g>
		<rect x="397.74" y="50" width="15" height="15"/>
	</g>
</g>
<g>
	<g>
		<rect x="145.67" y="464.06" width="15" height="15"/>
	</g>
</g>
<g>
	<g>
		<rect x="170.67" y="464.06" width="79.45" height="15"/>
	</g>
</g>
<g>
	<g>
		<rect x="120.67" y="464.06" width="15" height="15"/>
	</g>
</g>
<g>
	<g>
		<rect x="261.27" y="27.493" width="15" height="15"/>
	</g>
</g>
<g>
	<g>
		<rect x="236.27" y="27.493" width="15" height="15"/>
	</g>
</g>
<g>
	<g>
		<rect x="286.27" y="27.493" width="71.73" height="15"/>
	</g>
</g>
<g>
	<g>
		<path d="M437.813,0h-250.25c-35.394,0-64.188,28.794-64.188,64.188v355.469h15V64.188C138.375,37.065,160.44,15,187.563,15
			h209.055c-14.048,11.784-22.992,29.46-22.992,49.188v383.625c0,27.122-22.065,49.188-49.188,49.188s-49.188-22.065-49.188-49.188
			v-15.656H10v15.656C10,483.206,38.794,512,74.188,512H324.5c35.365-0.034,64.125-28.815,64.125-64.187V64.188
			C388.625,37.065,410.69,15,437.813,15S487,37.065,487,64.188V81.5h-85.875v15H502V64.188C502,28.794,473.206,0,437.813,0z
			 M74.188,497.001L74.188,497.001C47.065,497,25,474.935,25,447.813v-0.656h235.25v0.656c0,19.727,8.944,37.404,23.003,49.188
			H74.188z"/>
	</g>
</g>
<g>
	<g>
		<rect x="170.47" y="73.53" width="15" height="15"/>
	</g>
</g>
<g>
	<g>
		<rect x="195.47" y="73.53" width="15" height="15"/>
	</g>
</g>
<g>
	<g>
		<rect x="220.47" y="73.53" width="15" height="15"/>
	</g>
</g>
<g>
	<g>
		<path d="M255.997,106c-51.143,0-92.75,41.607-92.75,92.75s41.607,92.75,92.75,92.75s92.75-41.607,92.75-92.75
			S307.14,106,255.997,106z M255.997,276.5c-42.871,0-77.75-34.878-77.75-77.75S213.126,121,255.997,121s77.75,34.878,77.75,77.75
			S298.868,276.5,255.997,276.5z"/>
	</g>
</g>
<g>
	<g>
		<path d="M308.667,201.102c-0.583,13.208-6.042,25.62-15.37,34.948l10.607,10.606c11.986-11.986,18.999-27.928,19.749-44.892
			L308.667,201.102z"/>
	</g>
</g>
<g>
	<g>
		<path d="M303.904,150.844l-10.607,10.606c3.112,3.112,5.819,6.589,8.046,10.335l12.894-7.664
			C311.374,159.305,307.897,154.837,303.904,150.844z"/>
	</g>
</g>
<g>
	<g>
		<path d="M319.155,174.23l-13.99,5.411c1.575,4.076,2.643,8.353,3.17,12.712l14.891-1.802
			C322.549,184.957,321.18,179.466,319.155,174.23z"/>
	</g>
</g>
<g>
	<g>
		<path d="M231,132.655v50h50v-50H231z M266,167.655h-20v-20h20V167.655z"/>
	</g>
</g>
<g>
	<g>
		<path d="M231,188.405v76.439h50v-76.439H231z M266,249.845h-20v-46.439h20V249.845z"/>
	</g>
</g>
<g>
</g>
<g>
</g>
<g>
</g>
<g>
</g>
<g>
</g>
<g>
</g>
<g>
</g>
<g>
</g>
<g>
</g>
<g>
</g>
<g>
</g>
<g>
</g>
<g>
</g>
<g>
</g>
<g>
</g>
</svg>
