<?xml version="1.0" encoding="iso-8859-1"?>
<!-- Generator: Adobe Illustrator 16.0.0, SVG Export Plug-In . SVG Version: 6.00 Build 0)  -->
<!DOCTYPE svg PUBLIC "-//W3C//DTD SVG 1.1//EN" "http://www.w3.org/Graphics/SVG/1.1/DTD/svg11.dtd">
<svg version="1.1" id="Capa_1" xmlns="http://www.w3.org/2000/svg" xmlns:xlink="http://www.w3.org/1999/xlink" x="0px" y="0px"
	 width="699.428px" height="699.428px" viewBox="0 0 699.428 699.428" style="enable-background:new 0 0 699.428 699.428;"
	 xml:space="preserve">
<g>
	<g id="_x38__1_">
		<g>
			<path d="M517.074,289.454L366.26,138.64c-4.546-4.546-10.579-6.492-16.546-6.186c-5.967-0.306-12,1.639-16.546,6.186
				L182.375,289.454c-8.546,8.524-8.546,22.382,0,30.906c8.524,8.546,22.382,8.546,30.906,0l114.575-114.597v471.809
				c0,12.064,9.792,21.855,21.857,21.855c12.065,0,21.857-9.791,21.857-21.855V205.763L486.168,320.36
				c8.524,8.546,22.382,8.546,30.906,0C525.599,311.814,525.599,297.979,517.074,289.454z M568.285,0H131.143
				C82.86,0,43.714,39.146,43.714,87.429v437.144c0,48.281,39.146,87.428,87.429,87.428h65.571v-43.715h-65.571
				c-24.13,0-43.714-19.561-43.714-43.713V87.429c0-24.152,19.584-43.714,43.714-43.714h437.143
				c24.152,0,43.715,19.562,43.715,43.714v437.144c0,24.152-19.584,43.713-43.715,43.713h-65.571V612h65.571
				c48.282,0,87.429-39.146,87.429-87.428V87.429C655.714,39.146,616.567,0,568.285,0z"/>
		</g>
	</g>
</g>
<g>
</g>
<g>
</g>
<g>
</g>
<g>
</g>
<g>
</g>
<g>
</g>
<g>
</g>
<g>
</g>
<g>
</g>
<g>
</g>
<g>
</g>
<g>
</g>
<g>
</g>
<g>
</g>
<g>
</g>
</svg>
