<?xml version="1.0" encoding="iso-8859-1"?>
<!-- Generator: Adobe Illustrator 16.0.0, SVG Export Plug-In . SVG Version: 6.00 Build 0)  -->
<!DOCTYPE svg PUBLIC "-//W3C//DTD SVG 1.1//EN" "http://www.w3.org/Graphics/SVG/1.1/DTD/svg11.dtd">
<svg version="1.1" id="Capa_1" xmlns="http://www.w3.org/2000/svg" xmlns:xlink="http://www.w3.org/1999/xlink" x="0px" y="0px"
	 width="623.101px" height="623.101px" viewBox="0 0 623.101 623.101" style="enable-background:new 0 0 623.101 623.101;"
	 xml:space="preserve">
<g>
	<g id="Shape_23">
		<g>
			<path d="M19.464,560.265c0.674,0,1.349-0.05,2.036-0.175l160.631-26.653c0.687-0.112,1.299-0.388,1.949-0.612
				c0.325-0.112,0.649-0.162,0.961-0.3c1.349-0.587,2.561-1.411,3.61-2.41c0.087-0.088,0.2-0.101,0.287-0.188l371.222-373.52
				c2.348-2.36,3.659-5.545,3.659-8.893c0-3.335-1.312-6.532-3.659-8.88L426.006,3.682c-4.883-4.909-12.789-4.909-17.66,0
				L37.125,377.201c-0.087,0.088-0.112,0.213-0.2,0.3c-1,1.062-1.811,2.273-2.398,3.635c-0.125,0.3-0.175,0.612-0.288,0.924
				c-0.225,0.662-0.5,1.287-0.612,1.986L7.124,545.664c-0.649,3.996,0.649,8.081,3.497,10.929
				C12.994,558.966,16.179,560.265,19.464,560.265z M417.176,30.335l116.48,117.191L180.095,503.273L63.628,386.082L417.176,30.335z
				 M54.323,412.272l80.534,81.034l19.197,19.321l-119.44,19.821L54.323,412.272z M605.06,597.971H18.04
				c-6.895,0-12.49,5.621-12.49,12.565s5.595,12.564,12.49,12.564h587.02c6.895,0,12.49-5.62,12.49-12.564
				S611.955,597.971,605.06,597.971z"/>
		</g>
	</g>
</g>
<g>
</g>
<g>
</g>
<g>
</g>
<g>
</g>
<g>
</g>
<g>
</g>
<g>
</g>
<g>
</g>
<g>
</g>
<g>
</g>
<g>
</g>
<g>
</g>
<g>
</g>
<g>
</g>
<g>
</g>
</svg>
