<?xml version="1.0" encoding="iso-8859-1"?>
<!-- Generator: Adobe Illustrator 19.0.0, SVG Export Plug-In . SVG Version: 6.00 Build 0)  -->
<svg version="1.1" id="Capa_1" xmlns="http://www.w3.org/2000/svg" xmlns:xlink="http://www.w3.org/1999/xlink" x="0px" y="0px"
	 viewBox="0 0 480.002 480.002" style="enable-background:new 0 0 480.002 480.002;" xml:space="preserve">
<g>
	<g>
		<path d="M480.001,248V8c0-4.418-3.582-8-8-8h-368c-4.418,0-8,3.582-8,8v88h-88c-4.418,0-8,3.582-8,8v240c0,4.418,3.582,8,8,8h64
			c0.609-0.05,1.211-0.171,1.792-0.36l46.728,123.2c1.568,4.131,6.188,6.208,10.319,4.639c0.027-0.01,0.054-0.021,0.081-0.031
			l344-136c4.111-1.618,6.132-6.263,4.514-10.374c-0.003-0.009-0.007-0.017-0.01-0.026L449.169,256h22.832
			C476.42,256,480.001,252.418,480.001,248z M16.001,336V112h345.064l-43,16H40.001c-4.418,0-8,3.582-8,8v176c0,4.418,3.582,8,8,8
			h21.792l6.064,16H16.001z M376.001,96h-232V48h288v160h-1.688l-38.864-98.928c-1.222-3.039-4.173-5.026-7.448-5.016V104
			C384.001,99.582,380.42,96,376.001,96z M103.468,160.833c-2.447-0.572-4.953-0.851-7.466-0.833
			c-17.624-0.046-31.95,14.203-31.996,31.828c-0.027,10.211,4.834,19.817,13.076,25.844l-29.08,10.816V144h227.064l-147.864,55.032
			C131.196,181.93,120.57,164.827,103.468,160.833z M112.001,192c0,8.837-7.163,16-16,16s-16-7.163-16-16s7.163-16,16-16
			S112.001,183.163,112.001,192z M55.721,304h-7.72v-20.352L55.721,304z M461.641,331.496L132.601,461.6L50.337,244.688
			L379.425,122.24L461.641,331.496z M464.001,240h-21.12l-6.288-16h3.408c4.418,0,8-3.582,8-8V40c0-4.418-3.582-8-8-8h-304
			c-4.418,0-8,3.582-8,8v56h-16V16h352V240z"/>
	</g>
</g>
<g>
	<g>
		<path d="M439.481,317.152l-7.632-20c0.367-2.648-0.644-5.3-2.68-7.032l-53.688-140.968c-1.568-4.131-6.188-6.208-10.319-4.639
			c-0.027,0.01-0.054,0.021-0.081,0.031l-288,112c-4.101,1.591-6.148,6.193-4.584,10.304l64,168
			c1.185,3.112,4.174,5.164,7.504,5.152c0.991,0.003,1.974-0.181,2.896-0.544l288-112
			C438.998,325.865,441.046,321.263,439.481,317.152z M161.662,291.124c-0.973,1.263-1.545,2.789-1.645,4.38l-7.792,124.72
			l-3.616,1.4L90.305,268.576L363.393,162.4L407.441,278l-83.648-45.04c-3.89-2.094-8.742-0.638-10.836,3.252
			c-0.627,1.164-0.955,2.466-0.956,3.788v17.048l-59.56-39.704c-3.676-2.451-8.643-1.458-11.094,2.218
			c-0.677,1.015-1.113,2.172-1.274,3.382l-14.32,107.384l-52.872-40.664C169.38,286.969,164.357,287.623,161.662,291.124z
			 M168.649,413.824l6.4-102.32l86.2,66.32L168.649,413.824z M278.233,371.216c-0.378-0.577-0.832-1.099-1.352-1.552L240.393,341.6
			l13.84-103.824l61.328,40.888c3.675,2.452,8.643,1.461,11.095-2.215c0.879-1.317,1.347-2.866,1.345-4.449v-18.608l88.144,47.464
			l5.552,14.568L278.233,371.216z"/>
	</g>
</g>
<g>
</g>
<g>
</g>
<g>
</g>
<g>
</g>
<g>
</g>
<g>
</g>
<g>
</g>
<g>
</g>
<g>
</g>
<g>
</g>
<g>
</g>
<g>
</g>
<g>
</g>
<g>
</g>
<g>
</g>
</svg>
