<?xml version="1.0" encoding="iso-8859-1"?>
<!-- Generator: Adobe Illustrator 18.0.0, SVG Export Plug-In . SVG Version: 6.00 Build 0)  -->
<!DOCTYPE svg PUBLIC "-//W3C//DTD SVG 1.1//EN" "http://www.w3.org/Graphics/SVG/1.1/DTD/svg11.dtd">
<svg version="1.1" id="Capa_1" xmlns="http://www.w3.org/2000/svg" xmlns:xlink="http://www.w3.org/1999/xlink" x="0px" y="0px"
	 viewBox="0 0 297 297" style="enable-background:new 0 0 297 297;" xml:space="preserve">
<path d="M159.609,133.612c0.074,1.865,0.297,3.751,0.675,5.639l4.435,22.174c3.936,19.678,22.739,35.092,42.807,35.092h31.855
	c20.361,0,37.928-16.535,39.159-36.858l0.775-12.779l14.941-14.942c1.757-1.758,2.744-4.14,2.744-6.625v-15.459
	c0-5.174-4.195-9.369-9.369-9.369H179.418c-6.673,0-15.516,2.963-20.648,10.366c-7.169-2.682-14.298-2.046-20.378,0.224
	c-5.107-7.573-14.069-10.59-20.811-10.59H9.369c-5.175,0-9.369,4.195-9.369,9.369v15.459c0,2.485,0.987,4.867,2.744,6.625
	l14.941,14.942l0.775,12.779c1.232,20.323,18.798,36.858,39.159,36.858h31.854c20.067,0,38.871-15.414,42.807-35.093l4.434-22.172
	c0.371-1.859,0.594-3.716,0.671-5.554C148.5,125.312,159.609,133.612,159.609,133.612z M23.241,125.124
	c-1.31,1.312-3.129,2.062-4.975,2.062c-1.846,0-3.654-0.75-4.965-2.062c-1.313-1.302-2.062-3.111-2.062-4.966
	c0-1.856,0.749-3.663,2.062-4.965c1.311-1.313,3.119-2.062,4.965-2.062c1.854,0,3.664,0.749,4.975,2.062
	c1.304,1.302,2.053,3.12,2.053,4.965C25.294,122.004,24.545,123.822,23.241,125.124z M118.342,135.576l-4.435,22.172
	c-2.172,10.858-13.36,20.03-24.433,20.03H57.62c-10.455,0-19.823-8.817-20.456-19.254l-1.284-21.183
	c-0.294-4.857,1.313-9.412,4.526-12.826c3.213-3.414,7.662-5.294,12.529-5.294h51.998c4.617,0,8.52,1.658,10.986,4.667
	C118.387,126.898,119.247,131.049,118.342,135.576z M261.12,137.342l-1.284,21.184c-0.633,10.436-10.001,19.253-20.456,19.253
	h-31.855c-11.072,0-22.261-9.172-24.433-20.029l-4.435-22.174c-0.905-4.526-0.045-8.677,2.422-11.686
	c2.467-3.009,6.369-4.667,10.986-4.667h51.998c4.867,0,9.316,1.88,12.529,5.294C259.808,127.93,261.414,132.484,261.12,137.342z
	 M283.702,125.124c-1.311,1.312-3.129,2.062-4.975,2.062c-1.847,0-3.654-0.75-4.966-2.062c-1.311-1.302-2.06-3.111-2.06-4.966
	c0-1.856,0.749-3.663,2.06-4.965c1.311-1.313,3.119-2.062,4.966-2.062c1.855,0,3.663,0.749,4.975,2.062
	c1.303,1.302,2.052,3.12,2.052,4.965C285.754,122.004,285.005,123.822,283.702,125.124z"/>
<g>
</g>
<g>
</g>
<g>
</g>
<g>
</g>
<g>
</g>
<g>
</g>
<g>
</g>
<g>
</g>
<g>
</g>
<g>
</g>
<g>
</g>
<g>
</g>
<g>
</g>
<g>
</g>
<g>
</g>
</svg>
