<svg height="512pt" viewBox="0 0 512 512" width="512pt" xmlns="http://www.w3.org/2000/svg"><path d="m166.523438 309.265625-44.550782-21.277344-37.613281 92.882813c-.117187.292968-.230469.589844-.328125.886718-4.777344 14.332032-3.714844 27.355469 2.996094 36.660157 5.816406 8.074219 15.167968 12.523437 26.332031 12.523437h.003906c5.285157 0 10.964844-1 16.878907-2.972656.300781-.097656.597656-.207031.886718-.324219l92.882813-37.613281-21.273438-44.554688c-5.691406-11.910156-24.304687-30.523437-36.214843-36.210937zm0 0"/><path d="m510.722656 22.488281-292.46875 292.46875c4.855469 5.980469 8.898438 12.035157 11.554688 17.589844l74.238281 155.453125c9.972656 20.882812 23.121094 24 30.066406 24h.003907c6.207031 0 21.539062-2.699219 29.878906-27.714844l145.035156-435.105468c3.25-9.757813 3.789062-18.90625 1.691406-26.691407zm0 0"/><path d="m197.039062 293.746094 292.484376-292.484375c-3.066407-.832031-6.355469-1.261719-9.820313-1.261719-5.292969 0-10.972656 1-16.886719 2.972656l-435.101562 145.03125c-23.019532 7.675782-27.214844 21.074219-27.667969 28.375-.453125 7.304688 2.058594 21.117188 23.953125 31.570313l155.453125 74.242187c5.550781 2.65625 11.605469 6.699219 17.585937 11.554688zm0 0"/></svg>