<?xml version="1.0" encoding="iso-8859-1"?>
<!-- Generator: Adobe Illustrator 19.0.0, SVG Export Plug-In . SVG Version: 6.00 Build 0)  -->
<svg version="1.1" id="Capa_1" xmlns="http://www.w3.org/2000/svg" xmlns:xlink="http://www.w3.org/1999/xlink" x="0px" y="0px"
	 viewBox="0 0 512 512" style="enable-background:new 0 0 512 512;" xml:space="preserve">
<path style="fill:#6C8188;" d="M256,232.509c-4.329,0-7.837-3.509-7.837-7.837v-53.523c0-15.975-12.996-28.973-28.974-28.973
	c-24.619,0-44.646-20.029-44.646-44.646V64.205c0-4.328,3.508-7.837,7.837-7.837c4.329,0,7.837,3.509,7.837,7.837V97.53
	c0,15.975,12.996,28.973,28.973,28.973c24.619,0,44.647,20.029,44.647,44.646v53.523C263.837,229,260.329,232.509,256,232.509z"/>
<path style="fill:#F2F2F2;" d="M483.948,198.597H28.052C12.56,198.597,0,211.157,0,226.651v200.927
	c0,15.493,12.56,28.052,28.052,28.052h455.895c15.493,0,28.052-12.56,28.052-28.052V226.651
	C512,211.157,499.44,198.597,483.948,198.597z"/>
<path style="fill:#E0E0E0;" d="M483.948,198.597H28.052C12.56,198.597,0,211.157,0,226.651v23.509
	c0-15.493,12.56-28.052,28.052-28.052h455.895c15.493,0,28.052,12.56,28.052,28.052v-23.509
	C512,211.157,499.44,198.597,483.948,198.597z"/>
<path style="fill:#AAACAD;" d="M512,256.274v-12.539H0v12.539h75.806v38.868H0v12.539h35.152v38.868H0v12.539h75.806v38.868H0
	v12.539h28.202v45.137h12.539v-45.137h48.878v45.137h12.539v-45.137h48.879v45.137h12.539v-45.137h167.697v45.137h12.539v-45.137
	h48.878v45.137h12.539v-45.137h48.879v45.137h12.539v-45.137H512v-12.539h-55.149v-38.868h20.764V307.68H512v-12.539h-55.149
	v-38.868H512V256.274z M354.78,346.548V307.68h48.878v38.868H354.78z M157.988,307.68v38.868h-48.878V307.68H157.988z
	 M293.362,346.548V307.68h48.879v38.868H293.362z M231.945,346.548V307.68h48.878v38.868H231.945z M170.526,346.548V307.68h48.879
	v38.868H170.526z M272.598,295.141v-38.868h48.878v38.868H272.598z M260.059,295.141h-48.878v-38.868h48.878V295.141z
	 M198.642,295.141h-48.879v-38.868h48.879V295.141z M198.642,359.086v38.868h-48.879v-38.868H198.642z M211.181,359.086h48.878
	v38.868h-48.878V359.086z M272.598,359.086h48.878v38.868h-48.878V359.086z M334.015,359.086h48.879v38.868h-48.879V359.086z
	 M334.015,295.141v-38.868h48.879v38.868H334.015z M88.345,256.274h48.878v38.868H88.345V256.274z M47.691,307.68h48.879v38.868
	H47.691V307.68z M88.345,359.086h48.878v38.868H88.345V359.086z M444.313,397.954h-48.878v-38.868h48.878V397.954z M465.077,346.548
	h-48.878V307.68h48.878L465.077,346.548L465.077,346.548z M444.313,295.141h-48.878v-38.868h48.878V295.141z"/>
<g>
</g>
<g>
</g>
<g>
</g>
<g>
</g>
<g>
</g>
<g>
</g>
<g>
</g>
<g>
</g>
<g>
</g>
<g>
</g>
<g>
</g>
<g>
</g>
<g>
</g>
<g>
</g>
<g>
</g>
</svg>
