<svg height="479pt" viewBox="0 -39 479.23682 479" width="479pt" xmlns="http://www.w3.org/2000/svg"><path d="m410.679688 114.277344c-17.566407-66.988282-77.949219-113.816406-147.203126-114.15625-60.09375-.1953128-114.589843 35.234375-138.796874 90.238281-6.96875-1.496094-14.074219-2.246094-21.203126-2.238281-52.167968.261718-96.070312 39.132812-102.648437 90.882812-6.574219 51.753906 26.207031 100.371094 76.648437 113.675782.664063.113281 1.339844.113281 2 0 4.417969.550781 8.449219-2.582032 9-7 .554688-4.417969-2.582031-8.449219-7-9-41.753906-11.976563-68.523437-52.628907-63.027343-95.71875 5.492187-43.089844 41.605469-75.726563 85.027343-76.839844 8.117188-.007813 16.199219 1.125 24 3.359375 3.984376 1.148437 8.1875-.933594 9.679688-4.800781 20.136719-52.21875 70.359375-86.632813 126.320312-86.558594 63.742188.308594 118.824219 44.605468 132.800782 106.796875.714844 3.207031 3.316406 5.648437 6.558594 6.160156 36.292968 5.148437 62.925781 36.742187 61.859374 73.378906-1.066406 36.640625-29.488281 66.632813-66.015624 69.664063-2.128907.199218-4.085938 1.242187-5.4375 2.894531-1.351563 1.65625-1.988282 3.78125-1.765626 5.902344.222657 2.113281 1.273438 4.050781 2.925782 5.386719 1.652344 1.332031 3.765625 1.957031 5.875 1.734374 42.867187-4.425781 76.222656-39.246093 78.800781-82.265624 2.582031-43.015626-26.371094-81.574219-68.398437-91.09375zm0 0"/><path d="m367.476562 208.121094h-256c-4.417968 0-8 3.578125-8 8v176c0 4.417968 3.582032 8 8 8h256c4.417969 0 8-3.582032 8-8v-176c0-4.421875-3.582031-8-8-8zm-248 103.519531 81.921876-40c8.074218-3.945313 17.675781-3.050781 24.878906 2.320313l31.601562 24c12.761719 9.566406 29.992188 10.632812 43.839844 2.71875l19.4375-11.121094c8.324219-4.742188 18.667969-4.082032 26.320312 1.679687l12 8.882813v24l-16 13.679687c-8.488281 7.148438-20.679687 7.832031-29.917968 1.679688l-8-5.203125c-14.652344-9.90625-34.007813-9.296875-48 1.523437l-2.722656 2.078125c-9.058594 7.03125-21.734376 7.03125-30.796876 0-14.550781-11.65625-35.132812-12.015625-50.082031-.878906l-3.277343 2.480469c-8.785157 6.351562-20.65625 6.351562-29.441407 0l-22.082031-16zm184-30.402344-9.597656 5.519531c-8.324218 4.742188-18.667968 4.082032-26.320312-1.679687l-11.601563-8.640625c2.367188-11.921875 13.273438-20.191406 25.394531-19.253906 12.121094.9375 21.625 10.789062 22.125 22.9375zm56-57.117187v56l-2.398437-1.761719c-11.003906-8.257813-25.476563-10.28125-38.320313-5.359375-3.332031-17.5625-17.917968-30.785156-35.722656-32.382812-17.804687-1.597657-34.507812 8.8125-40.917968 25.503906l-6.238282-4.722656c-11.992187-8.957032-27.980468-10.46875-41.441406-3.917969l-74.960938 36.398437v-69.757812zm-240 160v-40.480469l12.800782 9.117187c14.4375 10.21875 33.804687 9.992188 48-.558593l3.199218-2.480469c9.125-6.800781 21.691407-6.570312 30.5625.558594 14.695313 11.769531 35.523438 12 50.480469.5625l2.796875-2.082032c8.453125-6.488281 20.097656-6.871093 28.960938-.957031l8 5.199219c15.171875 10.066406 35.15625 8.960938 49.121094-2.722656l5.917968-4.957032v38.800782zm0 0"/><path d="m311.476562 120.121094v48c0 4.417968 3.582032 8 8 8 4.417969 0 8-3.582032 8-8v-40h16c3.109376.003906 5.9375-1.789063 7.257813-4.601563 1.316406-2.8125.890625-6.132812-1.097656-8.519531l-40-48c-1.519531-1.835938-3.777344-2.894531-6.160157-2.894531-2.378906 0-4.640624 1.058593-6.160156 2.894531l-40 48c-1.988281 2.386719-2.414062 5.707031-1.09375 8.519531 1.320313 2.8125 4.148438 4.605469 7.253906 4.601563h16v24c0 4.417968 3.582032 8 8 8 4.417969 0 8-3.582032 8-8v-32c0-4.421875-3.582031-8-8-8h-6.878906l22.878906-27.523438 22.882813 27.523438h-6.882813c-4.417968 0-8 3.578125-8 8zm0 0"/><path d="m191.476562 136.121094v-48c0-4.421875-3.582031-8-8-8-4.417968 0-8 3.578125-8 8v40h-16c-3.105468-.007813-5.933593 1.785156-7.253906 4.597656-1.320312 2.8125-.894531 6.132812 1.09375 8.519531l40 48c1.519532 1.835938 3.78125 2.898438 6.160156 2.898438 2.382813 0 4.640626-1.0625 6.160157-2.898438l40-48c1.988281-2.386719 2.414062-5.707031 1.097656-8.519531-1.320313-2.8125-4.148437-4.605469-7.257813-4.597656h-16v-24c0-4.421875-3.582031-8-8-8-4.417968 0-8 3.578125-8 8v32c0 4.417968 3.582032 8 8 8h6.882813l-22.882813 27.519531-22.878906-27.519531h6.878906c4.417969 0 8-3.582032 8-8zm0 0"/></svg>