<?xml version="1.0" encoding="iso-8859-1"?>
<!-- Generator: Adobe Illustrator 19.0.0, SVG Export Plug-In . SVG Version: 6.00 Build 0)  -->
<svg version="1.1" id="Capa_1" xmlns="http://www.w3.org/2000/svg" xmlns:xlink="http://www.w3.org/1999/xlink" x="0px" y="0px"
	 viewBox="0 0 512.002 512.002" style="enable-background:new 0 0 512.002 512.002;" xml:space="preserve">
<g>
	<g>
		<path d="M509.656,250.345l-48-48c-3.128-3.128-8.184-3.128-11.312,0L368,284.689l-44.688-44.688l3.712-3.712
			c7.56-7.552,11.72-17.6,11.72-28.288c0-8.776-2.808-17.112-7.992-24H368c4.416,0,8-3.584,8-8v-88c0-22.056-17.944-40-40-40H176
			c-2.12,0-4.16,0.84-5.656,2.344l-26.592,26.592c0.112-1.64,0.248-3.272,0.248-4.936c0-39.696-32.304-72-72-72s-72,32.304-72,72
			s32.304,72,72,72c2.736,0,5.432-0.184,8.096-0.488c-0.008,0.168-0.096,0.32-0.096,0.488v64H8c-4.416,0-8,3.584-8,8v56
			c0,4.416,3.584,8,8,8h104c22.056,0,40-17.944,40-40v-20.688l36.688,36.688l-90.344,90.344C96.84,347.841,96,349.881,96,352.001
			v152c0,4.416,3.584,8,8,8h56h16h24v-16h-16V379.313l80-80l75.712,75.712c7.8,7.8,18.04,11.696,28.288,11.696
			s20.488-3.896,28.288-11.696l113.368-113.368C512.784,258.529,512.784,253.473,509.656,250.345z M72,128.001
			c-30.88,0-56-25.12-56-56s25.12-56,56-56s56,25.12,56,56c0,10.864-3.16,20.984-8.536,29.576
			c-4.504,7.208-10.68,13.384-17.888,17.888C92.984,124.841,82.864,128.001,72,128.001z M136,240.001c0,13.232-10.768,24-24,24H16
			v-40h72c4.416,0,8-3.584,8-8v-52.688l40,40V240.001z M170.344,370.345c-1.504,1.496-2.344,3.536-2.344,5.656v120h-8h-48V355.313
			l93.656-93.656c3.128-3.128,3.128-8.184,0-11.312L99.312,144.001l11.32-11.32c0.08-0.048,0.152-0.112,0.232-0.168
			c8.68-5.592,16.072-12.984,21.664-21.664c0.048-0.08,0.112-0.152,0.168-0.232l46.616-46.616H336c13.232,0,24,10.768,24,24v80h-40
			v-56c0-4.416-3.584-8-8-8h-64c-3.232,0-6.152,1.952-7.392,4.936c-1.24,2.992-0.552,6.432,1.736,8.72l73.368,73.368
			c4.536,4.536,7.032,10.56,7.032,16.976c0,6.416-2.496,12.44-7.032,16.976L170.344,370.345z M304,120.001v36.688l-36.688-36.688
			H304z M384.976,363.713c-9.36,9.36-24.584,9.36-33.944,0l-75.72-75.712L312,251.313l50.344,50.344
			c3.128,3.128,8.184,3.128,11.312,0L456,219.313l36.688,36.688L384.976,363.713z"/>
	</g>
</g>
<g>
	<g>
		<path d="M493.256,402.745l-39.6-39.592c-3.128-3.128-8.184-3.128-11.312,0l-39.6,39.6C390.656,414.833,384,430.905,384,448.001
			s6.656,33.168,18.744,45.256s28.16,18.744,45.256,18.744s33.168-6.656,45.256-18.744C505.344,481.169,512,465.097,512,448.001
			S505.344,414.833,493.256,402.745z M481.944,481.945c-9.072,9.064-21.12,14.056-33.944,14.056
			c-12.824,0-24.872-4.992-33.944-14.056c-9.072-9.064-14.056-21.12-14.056-33.944c0-12.824,4.992-24.872,14.056-33.944L448,380.121
			l33.944,33.944c9.064,9.064,14.056,21.112,14.056,33.936C496,460.825,491.008,472.873,481.944,481.945z"/>
	</g>
</g>
<g>
	<g>
		<path d="M470.624,425.377l-16.968-16.976c-1.504-1.504-3.536-2.344-5.656-2.344s-4.16,0.84-5.656,2.344l-16.976,16.976
			c-6.04,6.04-9.368,14.08-9.368,22.624s3.328,16.584,9.376,22.632c6.04,6.04,14.08,9.368,22.624,9.368s16.584-3.328,22.632-9.376
			c6.04-6.04,9.368-14.08,9.368-22.624C480,439.449,476.664,431.417,470.624,425.377z M459.32,459.313
			c-6.048,6.048-16.592,6.04-22.632,0c-3.024-3.016-4.688-7.04-4.688-11.312c0-4.272,1.664-8.296,4.68-11.312l11.32-11.32
			l11.312,11.32c3.024,3.024,4.688,7.04,4.688,11.312C464,452.273,462.336,456.297,459.32,459.313z"/>
	</g>
</g>
<g>
	<g>
		<path d="M356.288,443.713l-22.632-22.624c-3.128-3.128-8.184-3.128-11.312,0l-22.632,22.624c-15.592,15.6-15.592,40.976,0,56.568
			c7.8,7.8,18.04,11.696,28.288,11.696s20.488-3.896,28.288-11.696C371.88,484.689,371.88,459.313,356.288,443.713z
			 M344.976,488.977c-9.36,9.352-24.584,9.352-33.944,0c-9.352-9.36-9.352-24.584,0-33.944L328,438.057l16.976,16.968
			C354.328,464.385,354.328,479.617,344.976,488.977z"/>
	</g>
</g>
<g>
	<g>
		<rect x="216" y="496.001" width="16" height="16"/>
	</g>
</g>
<g>
	<g>
		<rect x="248" y="496.001" width="16" height="16"/>
	</g>
</g>
<g>
	<g>
		<rect x="392" y="48.001" width="16" height="16"/>
	</g>
</g>
<g>
	<g>
		<rect x="424" y="48.001" width="16" height="16"/>
	</g>
</g>
<g>
	<g>
		<rect x="456" y="48.001" width="16" height="16"/>
	</g>
</g>
<g>
</g>
<g>
</g>
<g>
</g>
<g>
</g>
<g>
</g>
<g>
</g>
<g>
</g>
<g>
</g>
<g>
</g>
<g>
</g>
<g>
</g>
<g>
</g>
<g>
</g>
<g>
</g>
<g>
</g>
</svg>
