<svg height="448pt" viewBox="-96 0 448 448" width="448pt" xmlns="http://www.w3.org/2000/svg"><path d="m127.664062 315.578125c45.566407 0 82.636719-36.785156 82.636719-82v-150.945313c0-45.636718-36.996093-82.632812-82.636719-82.632812-45.636718 0-82.632812 36.996094-82.632812 82.632812v150.3125c.050781 45.613282 37.019531 82.582032 82.632812 82.632813zm-62.632812-232.945313c0-34.589843 28.042969-62.632812 62.632812-62.632812 34.59375 0 62.636719 28.042969 62.636719 62.632812v150.949219c0 34.183594-28.101562 62-62.636719 62-34.574218-.039062-62.59375-28.058593-62.632812-62.636719zm0 0"/><path d="m245.332031 217.898438c-5.523437 0-10 4.480468-10 10v11.453124c0 59.460938-48.203125 107.664063-107.667969 107.664063-59.460937 0-107.664062-48.203125-107.664062-107.664063v-11.453124c0-5.519532-4.476562-10-10-10s-10 4.480468-10 10v11.453124c0 67.027344 51.925781 122.15625 117.664062 127.273438v61.375h-19.21875c-5.523437 0-10 4.476562-10 10s4.476563 10 10 10h58.441407c5.523437 0 10-4.476562 10-10s-4.476563-10-10-10h-19.222657v-61.378906c65.742188-5.117188 117.667969-60.242188 117.667969-127.273438v-11.449218c0-5.519532-4.476562-10-10-10zm0 0"/></svg>