<?xml version="1.0" encoding="iso-8859-1"?>
<!-- Generator: Adobe Illustrator 16.0.0, SVG Export Plug-In . SVG Version: 6.00 Build 0)  -->
<!DOCTYPE svg PUBLIC "-//W3C//DTD SVG 1.1//EN" "http://www.w3.org/Graphics/SVG/1.1/DTD/svg11.dtd">
<svg version="1.1" id="Capa_1" xmlns="http://www.w3.org/2000/svg" xmlns:xlink="http://www.w3.org/1999/xlink" x="0px" y="0px"
	 width="612px" height="612px" viewBox="0 0 612 612" style="enable-background:new 0 0 612 612;" xml:space="preserve">
<g>
	<g id="Rectangle_46_copy_16">
		<g>
			<path d="M227.896,291.16L126.272,189.841l-14.878,14.836l91.093,90.829H0v20.987h202.498l-91.093,90.829l14.878,14.836
				l116.502-116.153L227.896,291.16L227.896,291.16z M210.465,308.548v-5.086l2.554,2.543L210.465,308.548z M306,284.892
				c-11.66,0-21.103,9.454-21.103,21.103c0,11.648,9.444,21.103,21.103,21.103c11.66,0,21.103-9.454,21.103-21.103
				C327.103,294.346,317.66,284.892,306,284.892z M612,295.506H409.512l91.094-90.829l-14.879-14.836L384.104,291.16l0,0
				l-14.878,14.836l116.503,116.153l14.878-14.836l-91.094-90.829H612V295.506z M401.535,308.548l-2.554-2.543l2.554-2.543V308.548z
				"/>
		</g>
	</g>
</g>
<g>
</g>
<g>
</g>
<g>
</g>
<g>
</g>
<g>
</g>
<g>
</g>
<g>
</g>
<g>
</g>
<g>
</g>
<g>
</g>
<g>
</g>
<g>
</g>
<g>
</g>
<g>
</g>
<g>
</g>
</svg>
