<?xml version="1.0" encoding="iso-8859-1"?>
<!-- Generator: Adobe Illustrator 16.0.0, SVG Export Plug-In . SVG Version: 6.00 Build 0)  -->
<!DOCTYPE svg PUBLIC "-//W3C//DTD SVG 1.1//EN" "http://www.w3.org/Graphics/SVG/1.1/DTD/svg11.dtd">
<svg version="1.1" id="Capa_1" xmlns="http://www.w3.org/2000/svg" xmlns:xlink="http://www.w3.org/1999/xlink" x="0px" y="0px"
	 width="972px" height="972px" viewBox="0 0 972 972" style="enable-background:new 0 0 972 972;" xml:space="preserve">
<g>
	<path d="M90,576h0.5c49.7,0,90-40.3,90-90s-40.3-90-90-90H90c-49.7,0-90,40.3-90,90S40.3,576,90,576z"/>
	<path d="M617.5,576h1.1c49.7,0,90-40.3,90-90s-40.3-90-90-90h-1.1c-49.7,0-90,40.3-90,90S567.8,576,617.5,576z"/>
	<path d="M354.5,576c49.7,0,90-40.3,90-90s-40.3-90-90-90h-1.1c-49.7,0-90,40.3-90,90s40.3,90,90,90H354.5z"/>
	<path d="M881.5,576h0.5c49.7,0,90-40.3,90-90s-40.3-90-90-90h-0.5c-49.7,0-90,40.3-90,90S831.8,576,881.5,576z"/>
</g>
<g>
</g>
<g>
</g>
<g>
</g>
<g>
</g>
<g>
</g>
<g>
</g>
<g>
</g>
<g>
</g>
<g>
</g>
<g>
</g>
<g>
</g>
<g>
</g>
<g>
</g>
<g>
</g>
<g>
</g>
</svg>
