<?xml version="1.0" encoding="iso-8859-1"?>
<!-- Generator: Adobe Illustrator 16.0.0, SVG Export Plug-In . SVG Version: 6.00 Build 0)  -->
<!DOCTYPE svg PUBLIC "-//W3C//DTD SVG 1.1//EN" "http://www.w3.org/Graphics/SVG/1.1/DTD/svg11.dtd">
<svg version="1.1" id="Capa_1" xmlns="http://www.w3.org/2000/svg" xmlns:xlink="http://www.w3.org/1999/xlink" x="0px" y="0px"
	 width="970px" height="970px" viewBox="0 0 970 970" style="enable-background:new 0 0 970 970;" xml:space="preserve">
<g>
	<path d="M760,545h150c33.1,0,60-26.9,60-60s-26.9-60-60-60H760c-33.101,0-60,26.9-60,60S726.899,545,760,545z"/>
	<path d="M560,425H410c-33.101,0-60,26.9-60,60s26.899,60,60,60h150c33.1,0,60-26.9,60-60S593.2,425,560,425z"/>
	<path d="M210,425H60c-33.1,0-60,26.9-60,60s26.9,60,60,60h150c33.1,0,60-26.9,60-60S243.2,425,210,425z"/>
</g>
<g>
</g>
<g>
</g>
<g>
</g>
<g>
</g>
<g>
</g>
<g>
</g>
<g>
</g>
<g>
</g>
<g>
</g>
<g>
</g>
<g>
</g>
<g>
</g>
<g>
</g>
<g>
</g>
<g>
</g>
</svg>
