<?xml version="1.0" encoding="iso-8859-1"?>
<!-- Generator: Adobe Illustrator 19.0.0, SVG Export Plug-In . SVG Version: 6.00 Build 0)  -->
<svg version="1.1" id="Capa_1" xmlns="http://www.w3.org/2000/svg" xmlns:xlink="http://www.w3.org/1999/xlink" x="0px" y="0px"
	 viewBox="0 0 480 480" style="enable-background:new 0 0 480 480;" xml:space="preserve">
<g>
	<path style="fill:#6D6E71;" d="M408,451.999H72c-39.746-0.044-71.956-32.254-72-72v-64c0-4.418,3.582-8,8-8s8,3.582,8,8v64
		c0.035,30.913,25.087,55.965,56,56h336c30.913-0.035,55.965-25.087,56-56v-64c0-4.418,3.582-8,8-8s8,3.582,8,8v64
		C479.956,419.745,447.746,451.955,408,451.999z"/>
	<path style="fill:#6D6E71;" d="M381.848,30.631c-0.08-0.088-0.104-0.2-0.192-0.288c-2.28-2.279-5.705-2.966-8.688-1.744H248.656
		c-4.418,0-8,3.582-8,8s3.582,8,8,8h107.432L98.344,302.343c-3.178,3.069-3.266,8.134-0.196,11.312
		c3.069,3.178,8.134,3.266,11.312,0.196c0.067-0.064,0.132-0.13,0.196-0.196l259-258.992v109.936c0,4.418,3.582,8,8,8s8-3.582,8-8
		v-128C384.638,34.295,383.612,32.114,381.848,30.631z"/>
</g>
<g>
</g>
<g>
</g>
<g>
</g>
<g>
</g>
<g>
</g>
<g>
</g>
<g>
</g>
<g>
</g>
<g>
</g>
<g>
</g>
<g>
</g>
<g>
</g>
<g>
</g>
<g>
</g>
<g>
</g>
</svg>
