<?xml version="1.0" encoding="iso-8859-1"?>
<!-- Generator: Adobe Illustrator 16.0.0, SVG Export Plug-In . SVG Version: 6.00 Build 0)  -->
<!DOCTYPE svg PUBLIC "-//W3C//DTD SVG 1.1//EN" "http://www.w3.org/Graphics/SVG/1.1/DTD/svg11.dtd">
<svg version="1.1" id="Capa_1" xmlns="http://www.w3.org/2000/svg" xmlns:xlink="http://www.w3.org/1999/xlink" x="0px" y="0px"
	 width="46px" height="46px" viewBox="0 0 46 46" style="enable-background:new 0 0 46 46;" xml:space="preserve">
<g>
	<path d="M41.534,28.66h1.957c1.386,0,2.509-1.124,2.509-2.51V19.85c0-1.385-1.124-2.509-2.509-2.509H41.54v0.006
		c-0.392-1.207-0.853-2.364-1.437-3.458l1.381-1.381c0.979-0.98,0.979-2.569,0-3.549L37.04,4.517c-0.979-0.979-2.567-0.979-3.547,0
		l-1.382,1.38c-1.094-0.584-2.25-1.045-3.457-1.436h0.006V2.51c0-1.386-1.123-2.51-2.51-2.51h-6.3c-1.386,0-2.509,1.124-2.509,2.51
		v1.955l0.014-0.001c-1.207,0.367-2.363,0.85-3.458,1.435l-1.381-1.381c-0.98-0.979-2.568-0.979-3.548,0L4.525,8.961
		c-0.979,0.979-0.98,2.566-0.002,3.546L5.9,13.889c-0.584,1.094-1.049,2.251-1.44,3.457v-0.005H2.509C1.124,17.341,0,18.465,0,19.85
		v6.301c0,1.387,1.124,2.511,2.509,2.511h1.964l-0.006-0.015c0.367,1.207,0.853,2.362,1.436,3.457l-1.38,1.381
		c-0.98,0.979-0.979,2.567,0,3.547l4.443,4.442c0.979,0.979,2.568,0.979,3.548,0l1.381-1.381c1.094,0.584,2.251,1.072,3.458,1.438
		l-0.014-0.006v1.965c0,1.387,1.123,2.51,2.509,2.51h6.3c1.387,0,2.51-1.123,2.51-2.51v-1.95h-0.006
		c1.207-0.392,2.363-0.856,3.457-1.44l1.381,1.379c0.98,0.979,2.568,0.979,3.547,0l4.443-4.445c0.979-0.979,0.979-2.566,0-3.547
		l-1.383-1.383c0.584-1.094,1.068-2.25,1.436-3.457L41.534,28.66z M23.021,36.714C15.444,36.723,9.278,30.557,9.287,22.98
		C9.296,15.441,15.45,9.287,22.989,9.278c7.578-0.009,13.744,6.157,13.734,13.734C36.713,30.551,30.561,36.705,23.021,36.714z"/>
</g>
<g>
</g>
<g>
</g>
<g>
</g>
<g>
</g>
<g>
</g>
<g>
</g>
<g>
</g>
<g>
</g>
<g>
</g>
<g>
</g>
<g>
</g>
<g>
</g>
<g>
</g>
<g>
</g>
<g>
</g>
</svg>
