<?xml version="1.0" encoding="iso-8859-1"?>
<!-- Generator: Adobe Illustrator 16.0.0, SVG Export Plug-In . SVG Version: 6.00 Build 0)  -->
<!DOCTYPE svg PUBLIC "-//W3C//DTD SVG 1.1//EN" "http://www.w3.org/Graphics/SVG/1.1/DTD/svg11.dtd">
<svg version="1.1" id="Capa_1" xmlns="http://www.w3.org/2000/svg" xmlns:xlink="http://www.w3.org/1999/xlink" x="0px" y="0px"
	 width="696.133px" height="696.133px" viewBox="0 0 696.133 696.133" style="enable-background:new 0 0 696.133 696.133;"
	 xml:space="preserve">
<g>
	<g>
		<path d="M526.877,696.133c-70.146,0-127.213-57.055-127.213-127.189c0-5.037,0.311-10.145,0.92-15.23l-161.159-99.535
			c-20.821,13.814-44.908,21.084-70.158,21.084c-70.134-0.01-127.201-57.078-127.201-127.212c0-70.135,57.067-127.19,127.225-127.19
			c25.249,0,49.336,7.27,70.157,21.085l161.17-99.525c-0.621-5.096-0.932-10.203-0.932-15.23C399.675,57.055,456.742,0,526.877,0
			c70.134,0,127.189,57.055,127.189,127.19c0,70.146-57.056,127.213-127.189,127.213c-25.227,0-49.326-7.27-70.158-21.097
			l-161.158,99.536c0.609,5.084,0.909,10.181,0.909,15.208c0,5.038-0.299,10.146-0.909,15.229l161.158,99.537
			c20.81-13.816,44.896-21.086,70.158-21.086c70.134,0,127.189,57.068,127.189,127.213
			C654.066,639.078,597.011,696.133,526.877,696.133z M239,428.883c2.094,0,4.188,0.574,6.039,1.713l174.111,107.531
			c4.038,2.484,6.12,7.189,5.269,11.848c-1.161,6.338-1.736,12.711-1.736,18.957c0,57.447,46.748,104.184,104.206,104.184
			c57.446,0,104.184-46.725,104.184-104.184c0-57.457-46.726-104.205-104.184-104.205c-22.88,0-44.586,7.281-62.772,21.039
			c-3.772,2.863-8.938,3.105-12.986,0.609l-174.1-107.531c-4.026-2.484-6.12-7.178-5.28-11.838
			c1.15-6.314,1.726-12.699,1.726-18.968c0-6.246-0.587-12.63-1.726-18.969c-0.84-4.647,1.254-9.34,5.28-11.825l174.1-107.531
			c4.025-2.497,9.202-2.243,12.986,0.609c18.21,13.77,39.916,21.051,62.772,21.051c57.446,0,104.184-46.737,104.184-104.207
			c-0.011-57.435-46.736-104.161-104.194-104.161S422.67,69.732,422.67,127.19c0,6.246,0.587,12.619,1.737,18.957
			c0.851,4.659-1.231,9.364-5.269,11.848L245.027,265.526c-4.026,2.496-9.203,2.243-12.987-0.61
			c-18.186-13.769-39.904-21.051-62.772-21.051c-57.446,0-104.195,46.737-104.195,104.184c0,57.458,46.749,104.206,104.218,104.206
			c22.868,0,44.574-7.281,62.772-21.039C234.099,429.676,236.549,428.883,239,428.883z"/>
	</g>
</g>
<g>
</g>
<g>
</g>
<g>
</g>
<g>
</g>
<g>
</g>
<g>
</g>
<g>
</g>
<g>
</g>
<g>
</g>
<g>
</g>
<g>
</g>
<g>
</g>
<g>
</g>
<g>
</g>
<g>
</g>
</svg>
