<?xml version="1.0" encoding="iso-8859-1"?>
<!-- Generator: Adobe Illustrator 16.0.0, SVG Export Plug-In . SVG Version: 6.00 Build 0)  -->
<!DOCTYPE svg PUBLIC "-//W3C//DTD SVG 1.1//EN" "http://www.w3.org/Graphics/SVG/1.1/DTD/svg11.dtd">
<svg version="1.1" id="Capa_1" xmlns="http://www.w3.org/2000/svg" xmlns:xlink="http://www.w3.org/1999/xlink" x="0px" y="0px"
	 width="459px" height="459px" viewBox="0 0 459 459" style="enable-background:new 0 0 459 459;" xml:space="preserve">
<g>
	<g>
		<path d="M105.188,57.375c-26.775,0-47.812,21.038-47.812,47.812S78.413,153,105.188,153S153,131.962,153,105.188
			S131.962,57.375,105.188,57.375z M105.188,133.875c-15.3,0-28.688-13.388-28.688-28.688S89.888,76.5,105.188,76.5
			s28.688,13.388,28.688,28.688S120.487,133.875,105.188,133.875z"/>
		<path d="M447.525,256.275L191.25,0h-153C17.212,0,0,17.212,0,38.25v153l256.275,256.275c15.3,15.3,40.162,15.3,53.55,0
			l137.7-137.7C462.825,294.525,462.825,271.575,447.525,256.275z M434.138,296.438l-137.7,137.7c-7.65,7.649-19.125,7.649-26.775,0
			L19.125,181.688V38.25c0-11.475,9.562-19.125,19.125-19.125h143.438l252.45,250.537
			C441.787,275.4,441.787,288.787,434.138,296.438z"/>
	</g>
</g>
<g>
</g>
<g>
</g>
<g>
</g>
<g>
</g>
<g>
</g>
<g>
</g>
<g>
</g>
<g>
</g>
<g>
</g>
<g>
</g>
<g>
</g>
<g>
</g>
<g>
</g>
<g>
</g>
<g>
</g>
</svg>
