<?xml version="1.0" encoding="iso-8859-1"?>
<!-- Generator: Adobe Illustrator 16.0.0, SVG Export Plug-In . SVG Version: 6.00 Build 0)  -->
<!DOCTYPE svg PUBLIC "-//W3C//DTD SVG 1.1//EN" "http://www.w3.org/Graphics/SVG/1.1/DTD/svg11.dtd">
<svg version="1.1" id="Capa_1" xmlns="http://www.w3.org/2000/svg" xmlns:xlink="http://www.w3.org/1999/xlink" x="0px" y="0px"
	 width="459px" height="459px" viewBox="0 0 459 459" style="enable-background:new 0 0 459 459;" xml:space="preserve">
<g>
	<g>
		<polygon points="95.625,359.55 65.025,328.95 49.725,342.338 95.625,386.325 170.212,313.65 154.913,300.263 		"/>
		<path d="M447.525,256.275L191.25,0h-153C17.212,0,0,17.212,0,38.25v153l51.638,51.638C21.038,262.013,0,294.525,0,334.688
			c0,57.375,47.812,105.188,105.188,105.188c38.25,0,72.675-21.037,91.8-51.638l59.288,59.288c15.3,15.3,40.162,15.3,53.55,0
			l137.7-137.7C462.825,294.525,462.825,271.575,447.525,256.275z M105.188,420.75c-47.812,0-86.062-38.25-86.062-86.062
			s38.25-86.062,86.062-86.062s86.062,38.25,86.062,86.062S153,420.75,105.188,420.75z M434.138,296.438l-137.7,137.7
			c-7.65,7.649-19.125,7.649-26.775,0l-65.024-65.025c3.825-11.475,5.737-21.037,5.737-34.425
			c0-57.375-47.812-105.188-105.188-105.188c-11.475,0-22.95,1.912-32.513,5.737l-53.55-53.55V38.25
			c0-11.475,9.562-19.125,19.125-19.125h143.438l252.45,250.537C441.787,275.4,441.787,288.787,434.138,296.438z"/>
		<path d="M105.188,57.375c-26.775,0-47.812,21.038-47.812,47.812S78.413,153,105.188,153S153,131.962,153,105.188
			S131.962,57.375,105.188,57.375z M105.188,133.875c-15.3,0-28.688-13.388-28.688-28.688S89.888,76.5,105.188,76.5
			s28.688,13.388,28.688,28.688S120.487,133.875,105.188,133.875z"/>
	</g>
</g>
<g>
</g>
<g>
</g>
<g>
</g>
<g>
</g>
<g>
</g>
<g>
</g>
<g>
</g>
<g>
</g>
<g>
</g>
<g>
</g>
<g>
</g>
<g>
</g>
<g>
</g>
<g>
</g>
<g>
</g>
</svg>
