<?xml version='1.0' encoding='utf-8'?>
<!DOCTYPE svg PUBLIC '-//W3C//DTD SVG 1.1//EN' 'http://www.w3.org/Graphics/SVG/1.1/DTD/svg11.dtd'>
<svg width="64" version="1.1" xmlns="http://www.w3.org/2000/svg" height="64" viewBox="0 0 64 64" xmlns:xlink="http://www.w3.org/1999/xlink" enable-background="new 0 0 64 64">
  <g>
    <g fill="#1D1D1B">
      <path d="m63.228,.459c-0.889-0.721-2.186-0.576-2.899,0.32l-32.929,41.435-10.781-13.565c-0.713-0.897-2.013-1.042-2.9-0.32-0.888,0.721-1.031,2.032-0.315,2.931l11.929,15.011c0.361,0.646 1.038,1.032 1.768,1.032 0.115,0 0.231-0.033 0.349-0.053 0.066,0.008 0.133,0.044 0.202,0.044 0.652,0 1.287-0.319 1.688-0.86l34.205-43.045c0.715-0.897 0.572-2.209-0.317-2.93z"/>
      <path d="m59.159,21.184c-1.14,0-2.062,0.933-2.062,2.084v34.478c0,1.149-0.926,2.085-2.064,2.085h-48.842c-1.139,0-2.064-0.936-2.064-2.085v-49.353c0-1.148 0.926-2.084 2.064-2.084h33.811c1.141,0 2.063-0.934 2.063-2.086 0-1.15-0.923-2.084-2.063-2.084h-33.811c-3.414,0-6.19,2.805-6.19,6.254v49.353c0,3.449 2.776,6.255 6.19,6.255h48.841c3.414,0 6.191-2.806 6.191-6.255v-34.478c0.001-1.152-0.922-2.084-2.064-2.084z"/>
    </g>
  </g>
</svg>
