<svg height="384pt" viewBox="0 0 384 384" width="384pt" xmlns="http://www.w3.org/2000/svg"><path d="m368 0h-352c-8.832031 0-16 7.167969-16 16v352c0 8.832031 7.167969 16 16 16h32c8.832031 0 16-7.167969 16-16s-7.167969-16-16-16h-16v-320h320v320h-240c-8.832031 0-16 7.167969-16 16s7.167969 16 16 16h256c8.832031 0 16-7.167969 16-16v-352c0-8.832031-7.167969-16-16-16zm0 0"/><path d="m192 64c-8.832031 0-16 7.167969-16 16v96h-96c-8.832031 0-16 7.167969-16 16s7.167969 16 16 16h96v96c0 8.832031 7.167969 16 16 16s16-7.167969 16-16v-96h96c8.832031 0 16-7.167969 16-16s-7.167969-16-16-16h-96v-96c0-8.832031-7.167969-16-16-16zm0 0"/></svg>