<svg height="384pt" viewBox="0 0 384 384" width="384pt" xmlns="http://www.w3.org/2000/svg"><path d="m368 48h-48v-32c0-8.832031-7.167969-16-16-16s-16 7.167969-16 16v32h-192v-32c0-8.832031-7.167969-16-16-16s-16 7.167969-16 16v32h-48c-8.832031 0-16 7.167969-16 16v304c0 8.832031 7.167969 16 16 16h352c8.832031 0 16-7.167969 16-16v-304c0-8.832031-7.167969-16-16-16zm-336 304v-176h224c8.832031 0 16-7.167969 16-16s-7.167969-16-16-16h-224v-64h32v16c0 8.832031 7.167969 16 16 16s16-7.167969 16-16v-16h192v16c0 8.832031 7.167969 16 16 16s16-7.167969 16-16v-16h32v64h-32c-8.832031 0-16 7.167969-16 16s7.167969 16 16 16h32v176zm0 0"/><path d="m96 208h-16c-8.832031 0-16 7.167969-16 16s7.167969 16 16 16h16c8.832031 0 16-7.167969 16-16s-7.167969-16-16-16zm0 0"/><path d="m168 208h-16c-8.832031 0-16 7.167969-16 16s7.167969 16 16 16h16c8.832031 0 16-7.167969 16-16s-7.167969-16-16-16zm0 0"/><path d="m232 208h-16c-8.832031 0-16 7.167969-16 16s7.167969 16 16 16h16c8.832031 0 16-7.167969 16-16s-7.167969-16-16-16zm0 0"/><path d="m304 208h-16c-8.832031 0-16 7.167969-16 16s7.167969 16 16 16h16c8.832031 0 16-7.167969 16-16s-7.167969-16-16-16zm0 0"/><path d="m96 272h-16c-8.832031 0-16 7.167969-16 16s7.167969 16 16 16h16c8.832031 0 16-7.167969 16-16s-7.167969-16-16-16zm0 0"/><path d="m168 272h-16c-8.832031 0-16 7.167969-16 16s7.167969 16 16 16h16c8.832031 0 16-7.167969 16-16s-7.167969-16-16-16zm0 0"/><path d="m232 272h-16c-8.832031 0-16 7.167969-16 16s7.167969 16 16 16h16c8.832031 0 16-7.167969 16-16s-7.167969-16-16-16zm0 0"/><path d="m304 272h-16c-8.832031 0-16 7.167969-16 16s7.167969 16 16 16h16c8.832031 0 16-7.167969 16-16s-7.167969-16-16-16zm0 0"/></svg>