<svg height="384pt" viewBox="0 0 384 384" width="384pt" xmlns="http://www.w3.org/2000/svg"><path d="m368 0h-352c-8.832031 0-16 7.167969-16 16v352c0 8.832031 7.167969 16 16 16h32c8.832031 0 16-7.167969 16-16s-7.167969-16-16-16h-16v-320h320v320h-240c-8.832031 0-16 7.167969-16 16s7.167969 16 16 16h256c8.832031 0 16-7.167969 16-16v-352c0-8.832031-7.167969-16-16-16zm0 0"/><path d="m100.6875 283.3125c3.121094 3.128906 7.214844 4.6875 11.3125 4.6875s8.191406-1.558594 11.3125-4.6875l68.6875-68.6875 68.6875 68.6875c3.121094 3.128906 7.214844 4.6875 11.3125 4.6875s8.191406-1.558594 11.3125-4.6875c6.246094-6.25 6.246094-16.375 0-22.625l-68.6875-68.6875 68.6875-68.6875c6.246094-6.25 6.246094-16.375 0-22.625-6.242188-6.246094-16.382812-6.246094-22.625 0l-68.6875 68.6875-68.6875-68.6875c-6.242188-6.246094-16.382812-6.246094-22.625 0-6.246094 6.25-6.246094 16.375 0 22.625l68.6875 68.6875-68.6875 68.6875c-6.246094 6.25-6.246094 16.375 0 22.625zm0 0"/></svg>