<svg height="384pt" viewBox="-16 0 384 384" width="384pt" xmlns="http://www.w3.org/2000/svg"><path d="m16 64c-8.832031 0-16 7.167969-16 16s7.167969 16 16 16h16v272c0 8.832031 7.167969 16 16 16h256c8.832031 0 16-7.167969 16-16v-176c0-8.832031-7.167969-16-16-16s-16 7.167969-16 16v160h-224v-256h224v32c0 8.832031 7.167969 16 16 16s16-7.167969 16-16v-32h16c8.832031 0 16-7.167969 16-16s-7.167969-16-16-16h-88v-48c0-8.832031-7.167969-16-16-16h-112c-8.832031 0-16 7.167969-16 16v48zm120-32h80v32h-80zm0 0"/><path d="m112 184v80c0 8.832031 7.167969 16 16 16s16-7.167969 16-16v-80c0-8.832031-7.167969-16-16-16s-16 7.167969-16 16zm0 0"/><path d="m208 184v80c0 8.832031 7.167969 16 16 16s16-7.167969 16-16v-80c0-8.832031-7.167969-16-16-16s-16 7.167969-16 16zm0 0"/></svg>