<svg height="384pt" viewBox="0 0 384 384" width="384pt" xmlns="http://www.w3.org/2000/svg"><path d="m307.152344 66c-12.816406-38.824219-49.441406-66-91.152344-66-38.222656 0-71.960938 22.246094-87.375 56.375-31 3.167969-56.191406 26.105469-62.855469 55.9375-36.785156 3.175781-65.769531 34.085938-65.769531 71.6875 0 39.703125 32.304688 72 72 72h80c8.832031 0 16-7.167969 16-16s-7.167969-16-16-16h-80c-22.054688 0-40-17.945312-40-40s17.945312-40 40-40c2.054688 0 3.753906.121094 5.046875.367188 8.671875 1.632812 17.042969-4.085938 18.679687-12.773438.21875-1.144531.289063-2.289062.257813-3.410156 0-.054688.015625-.121094.015625-.183594 0-22.054688 17.945312-40 40-40l.496094-.0625c.257812.046875.503906.03125.75.070312.5625.082032 1.113281.136719 1.664062.160157.503906.023437 1.011719.03125 1.503906 0 .546876-.03125 1.082032-.089844 1.617188-.167969.496094-.078125.984375-.167969 1.464844-.289062.519531-.125 1.015625-.285157 1.519531-.472657.464844-.167969.921875-.34375 1.359375-.550781.488281-.230469.953125-.488281 1.410156-.757812.414063-.25.816406-.503907 1.207032-.792969.433593-.320313.847656-.65625 1.246093-1.015625.371094-.328125.722657-.664063 1.058594-1.03125.351563-.386719.6875-.785156 1-1.210938.320313-.414062.613281-.847656.894531-1.304687.265625-.429688.496094-.871094.71875-1.328125.25-.503906.472656-1.015625.664063-1.558594.089843-.230469.21875-.441406.289062-.679688 8.410157-26.917968 32.976563-45.007812 61.136719-45.007812 30.398438 0 56.816406 21.617188 62.792969 51.390625.070312.351563.207031.679687.304687 1.023437.109375.417969.214844.84375.367188 1.242188.207031.574219.464844 1.121094.726562 1.65625.160156.328125.304688.671875.488282.984375.359374.613281.785156 1.191406 1.214843 1.742187.160157.207032.296875.433594.464844.625.632813.734376 1.328125 1.414063 2.074219 2.015626.167968.136718.351562.230468.527344.359374.605468.449219 1.222656.871094 1.886718 1.234376.3125.167968.648438.292968.976563.445312.574219.265625 1.160156.511719 1.769531.714844.34375.109375.695312.191406 1.046875.277344.648437.160156 1.304687.28125 1.976563.359374.191406.027344.367187.089844.558593.105469 32.984375 2.703125 58.824219 30.734375 58.824219 63.824219 0 35.289062-28.710938 64-64 64h-8c-8.832031 0-16 7.167969-16 16s7.167969 16 16 16h8c52.9375 0 96-43.0625 96-96 0-45.742188-32.953125-84.96875-76.847656-94zm0 0"/><path d="m200 329.375-20.6875-20.6875c-6.242188-6.246094-16.382812-6.246094-22.625 0-6.246094 6.25-6.246094 16.375 0 22.625l48 48c.769531.765625 1.601562 1.449219 2.480469 2.03125.710937.472656 1.472656.839844 2.238281 1.183594.1875.082031.347656.199218.53125.28125.816406.335937 1.671875.558594 2.519531.757812.152344.035156.296875.105469.453125.136719 1.027344.191406 2.058594.296875 3.089844.296875.070312 0 .136719-.015625.207031-.023438.960938-.015624 1.921875-.097656 2.871094-.28125.128906-.023437.25-.078124.378906-.109374.894531-.203126 1.78125-.449219 2.640625-.800782.007813 0 .015625-.007812.023438-.007812.03125-.007813.046875-.035156.078125-.050782 1.242187-.519531 2.402343-1.253906 3.503906-2.101562.289063-.226562.570313-.449219.839844-.6875.25-.21875.527343-.386719.769531-.625l48-48c6.246094-6.25 6.246094-16.375 0-22.625-6.242188-6.246094-16.382812-6.246094-22.625 0l-20.6875 20.6875v-121.375c0-8.832031-7.167969-16-16-16s-16 7.167969-16 16zm0 0"/><path d="m216 160c8.832031 0 16-7.167969 16-16v-16c0-8.832031-7.167969-16-16-16s-16 7.167969-16 16v16c0 8.832031 7.167969 16 16 16zm0 0"/></svg>