<svg height="384pt" viewBox="0 0 384 384" width="384pt" xmlns="http://www.w3.org/2000/svg"><path d="m304 320c1.464844 0 2.855469-.265625 4.207031-.632812.328125-.085938.640625-.183594.960938-.296876 1.289062-.4375 2.519531-.992187 3.632812-1.726562.03125-.023438.070313-.03125.101563-.054688 1.144531-.769531 2.144531-1.730468 3.058594-2.761718.222656-.246094.429687-.503906.640624-.765625.863282-1.113281 1.621094-2.296875 2.167969-3.609375 0-.007813.007813-.015625.015625-.023438.015625-.03125.015625-.074218.023438-.113281.503906-1.238281.800781-2.574219.984375-3.953125.046875-.359375.085937-.71875.109375-1.078125.019531-.328125.097656-.648437.097656-.984375v-48c0-8.832031-7.167969-16-16-16s-16 7.167969-16 16v9.375l-73.375-73.375 73.375-73.375v9.375c0 8.832031 7.167969 16 16 16s16-7.167969 16-16v-48c0-.335938-.078125-.65625-.097656-.984375-.023438-.367187-.0625-.71875-.109375-1.078125-.175781-1.378906-.480469-2.707031-.984375-3.953125-.015625-.03125-.015625-.074219-.023438-.113281 0-.007813-.007812-.015625-.015625-.023438-.554687-1.3125-1.3125-2.503906-2.167969-3.609375-.210937-.261719-.417968-.519531-.640624-.765625-.914063-1.03125-1.90625-1.984375-3.058594-2.761718-.03125-.023438-.070313-.03125-.101563-.054688-1.113281-.734375-2.34375-1.289062-3.632812-1.726562-.320313-.113282-.632813-.210938-.960938-.296876-1.351562-.367187-2.742187-.632812-4.207031-.632812h-48c-8.832031 0-16 7.167969-16 16s7.167969 16 16 16h9.367188l-73.367188 73.375-73.375-73.375h9.375c8.832031 0 16-7.167969 16-16s-7.167969-16-16-16h-48c-.328125 0-.640625.078125-.960938.097656-.375.023438-.742187.0625-1.117187.109375-1.378906.183594-2.707031.480469-3.953125.984375-.03125.015625-.066406.007813-.089844.023438-.007812 0-.015625.007812-.015625.007812-1.320312.554688-2.511719 1.3125-3.625 2.183594-.261719.203125-.503906.410156-.75.625-1.039062.914062-2 1.914062-2.769531 3.066406-.015625.023438-.03125.054688-.046875.085938-.742187 1.121094-1.296875 2.359375-1.734375 3.65625-.113281.320312-.210938.625-.296875.953125-.375 1.351562-.640625 2.742187-.640625 4.207031v48c0 8.832031 7.167969 16 16 16s16-7.167969 16-16v-9.375l73.375 73.375-73.375 73.375v-9.375c0-8.832031-7.167969-16-16-16s-16 7.167969-16 16v48c0 1.464844.265625 2.855469.632812 4.207031.085938.328125.183594.632813.296876.953125.4375 1.296875.992187 2.535156 1.734374 3.65625.015626.023438.03125.054688.046876.085938.777343 1.152344 1.730468 2.152344 2.769531 3.066406.246093.214844.496093.414062.75.625 1.113281.863281 2.304687 1.628906 3.625 2.183594.007812 0 .015625.007812.015625.007812.25.101563.503906.136719.746094.222656.726562.265626 1.453124.519532 2.230468.671876 1.046875.207031 2.097656.320312 3.152344.320312h48c8.832031 0 16-7.167969 16-16s-7.167969-16-16-16h-9.375l73.375-73.375 73.367188 73.375h-9.367188c-8.832031 0-16 7.167969-16 16s7.167969 16 16 16zm0 0"/><path d="m368 0h-96c-8.832031 0-16 7.167969-16 16s7.167969 16 16 16h80v80c0 8.832031 7.167969 16 16 16s16-7.167969 16-16v-96c0-8.832031-7.167969-16-16-16zm0 0"/><path d="m16 128c8.832031 0 16-7.167969 16-16v-80h80c8.832031 0 16-7.167969 16-16s-7.167969-16-16-16h-96c-8.832031 0-16 7.167969-16 16v96c0 8.832031 7.167969 16 16 16zm0 0"/><path d="m368 256c-8.832031 0-16 7.167969-16 16v80h-80c-8.832031 0-16 7.167969-16 16s7.167969 16 16 16h96c8.832031 0 16-7.167969 16-16v-96c0-8.832031-7.167969-16-16-16zm0 0"/><path d="m112 352h-80v-80c0-8.832031-7.167969-16-16-16s-16 7.167969-16 16v96c0 8.832031 7.167969 16 16 16h96c8.832031 0 16-7.167969 16-16s-7.167969-16-16-16zm0 0"/></svg>