<svg height="384pt" viewBox="-64 0 384 384" width="384pt" xmlns="http://www.w3.org/2000/svg"><path d="m240 80c8.832031 0 16-7.167969 16-16v-48c0-8.832031-7.167969-16-16-16h-224c-8.832031 0-16 7.167969-16 16v352c0 6.472656 3.894531 12.304688 9.871094 14.785156 5.984375 2.460938 12.855468 1.101563 17.441406-3.472656l100.6875-100.679688 100.6875 100.679688c3.066406 3.0625 7.144531 4.6875 11.3125 4.6875 2.0625 0 4.144531-.398438 6.128906-1.214844 5.976563-2.480468 9.871094-8.3125 9.871094-14.785156v-240c0-8.832031-7.167969-16-16-16s-16 7.167969-16 16v201.367188l-84.6875-84.679688-32-32c-6.25-6.246094-16.375-6.246094-22.625 0-6.246094 6.25-6.246094 16.375 0 22.625l20.6875 20.6875-73.375 73.367188v-297.367188h192v32c0 8.832031 7.167969 16 16 16zm0 0"/></svg>