<svg height="383pt" viewBox="-15 0 383 383.998" width="383pt" xmlns="http://www.w3.org/2000/svg"><path d="m16.5 383.996094h80c8.832031 0 16-7.167969 16-16v-144h80c8.832031 0 16-7.167969 16-16 0-8.832032-7.167969-16-16-16h-80c-17.648438 0-32 14.355468-32 32v128h-48v-169.367188l144-144 144 144v169.367188h-48v-48c0-8.832032-7.167969-16-16-16s-16 7.167968-16 16v64c0 8.832031 7.167969 16 16 16h80c8.832031 0 16-7.167969 16-16v-192c0-4.238282-1.6875-8.308594-4.6875-11.308594l-160-160c-6.242188-6.25-16.386719-6.25-22.625 0l-160 160c-3 3-4.6875 7.070312-4.6875 11.308594v192c0 8.832031 7.167969 16 16 16zm0 0"/><path d="m256.5 255.996094c8.832031 0 16-7.167969 16-16v-32c0-8.832032-7.167969-16-16-16s-16 7.167968-16 16v32c0 8.832031 7.167969 16 16 16zm0 0"/></svg>