<svg height="384pt" viewBox="0 0 384 384" width="384pt" xmlns="http://www.w3.org/2000/svg"><path d="m368 0h-352c-8.832031 0-16 7.167969-16 16v352c0 8.832031 7.167969 16 16 16h32c8.832031 0 16-7.167969 16-16s-7.167969-16-16-16h-16v-320h320v320h-240c-8.832031 0-16 7.167969-16 16s7.167969 16 16 16h256c8.832031 0 16-7.167969 16-16v-352c0-8.832031-7.167969-16-16-16zm0 0"/><path d="m132.6875 203.3125c6.25 6.246094 16.375 6.246094 22.625 0l20.6875-20.6875v121.375c0 6.472656 3.894531 12.304688 9.871094 14.785156 1.984375.816406 4.066406 1.214844 6.128906 1.214844 4.167969 0 8.246094-1.625 11.3125-4.6875l48-48c6.246094-6.25 6.246094-16.375 0-22.625-6.25-6.246094-16.375-6.246094-22.625 0l-20.6875 20.6875v-121.375c0-6.472656-3.894531-12.304688-9.871094-14.785156-6-2.488282-12.855468-1.117188-17.441406 3.472656l-48 48c-6.246094 6.25-6.246094 16.375 0 22.625zm0 0"/><path d="m216 88c0-13.230469-10.769531-24-24-24s-24 10.769531-24 24 10.769531 24 24 24 24-10.769531 24-24zm0 0"/></svg>