<svg height="384pt" viewBox="-32 0 384 384" width="384pt" xmlns="http://www.w3.org/2000/svg"><path d="m160 0c-61.761719 0-112 50.238281-112 112v16h-32c-8.832031 0-16 7.167969-16 16v224c0 8.832031 7.167969 16 16 16h48c8.832031 0 16-7.167969 16-16s-7.167969-16-16-16h-32v-192h256v192h-160c-8.832031 0-16 7.167969-16 16s7.167969 16 16 16h176c8.832031 0 16-7.167969 16-16v-224c0-8.832031-7.167969-16-16-16h-32v-16c0-61.761719-50.238281-112-112-112zm-80 112c0-44.113281 35.886719-80 80-80s80 35.886719 80 80v16h-160zm0 0"/><path d="m160 240c8.832031 0 16-7.167969 16-16v-16c0-8.832031-7.167969-16-16-16s-16 7.167969-16 16v16c0 8.832031 7.167969 16 16 16zm0 0"/><path d="m144 304c0 8.832031 7.167969 16 16 16s16-7.167969 16-16v-32c0-8.832031-7.167969-16-16-16s-16 7.167969-16 16zm0 0"/></svg>