<svg height="384pt" viewBox="0 0 384 384" width="384pt" xmlns="http://www.w3.org/2000/svg"><path d="m383.496094 140.203125c-.25-1.007813-.585938-1.976563-1.007813-2.894531-.160156-.34375-.351562-.65625-.535156-.984375-.394531-.710938-.832031-1.398438-1.328125-2.039063-.257812-.328125-.511719-.648437-.785156-.953125-.574219-.640625-1.207032-1.214843-1.871094-1.753906-.199219-.15625-.34375-.367187-.554688-.519531l-176-128c-5.605468-4.078125-13.214843-4.078125-18.828124 0l-176 128c-.210938.152344-.355469.363281-.554688.519531-.671875.539063-1.296875 1.113281-1.871094 1.753906-.28125.3125-.535156.625-.785156.953125-.496094.640625-.925781 1.328125-1.328125 2.039063-.183594.328125-.375.640625-.535156.984375-.421875.917968-.757813 1.886718-1.007813 2.894531-.039062.160156-.113281.304687-.144531.464844-.230469 1.070312-.359375 2.183593-.359375 3.328125v224c0 8.832031 7.167969 16 16 16h48c8.832031 0 16-7.167969 16-16 0-8.832032-7.167969-16-16-16h-32v-178.847656l151.113281 96.152343c.183594.128907.390625.253907.582031.375l129.351563 82.320313h-185.046875c-8.832031 0-16 7.167968-16 16 0 8.832031 7.167969 16 16 16h239.960938.023437c.03125 0 .0625-.015625.09375-.015625 1.21875-.007813 2.394531-.175781 3.539063-.441407.328124-.078124.640624-.199218.957031-.296874.851562-.253907 1.664062-.558594 2.449219-.949219.359374-.175781.710937-.367188 1.066406-.578125.75-.445313 1.453125-.949219 2.125-1.511719.273437-.230469.5625-.421875.816406-.671875.890625-.847656 1.679688-1.785156 2.351562-2.816406.03125-.046875.082032-.085938.113282-.136719.207031-.316406.328125-.671875.503906-1.007813.289062-.535156.59375-1.0625.824219-1.636718.199219-.503906.328125-1.019532.472656-1.53125.144531-.488282.304687-.957032.398437-1.460938.121094-.632812.152344-1.273437.191407-1.914062.035156-.335938.113281-.671875.113281-1.03125v-224c0-1.144532-.128906-2.257813-.359375-3.328125-.03125-.160157-.105469-.304688-.144531-.464844zm-339.082032 2.914063 147.585938-107.335938 147.585938 107.335938-147.585938 93.910156zm307.585938 30.03125v165.695312l-130.191406-82.847656zm0 0"/></svg>