<svg height="384pt" viewBox="0 -48 384 384" width="384pt" xmlns="http://www.w3.org/2000/svg"><path d="m384 16.039062v-.039062c0-1.550781-.289062-3.015625-.703125-4.433594-.050781-.167968-.023437-.34375-.082031-.511718-.046875-.144532-.152344-.246094-.199219-.390626-.496094-1.398437-1.152344-2.71875-2.007813-3.910156-.144531-.203125-.3125-.371094-.457031-.554687-.824219-1.054688-1.765625-1.992188-2.824219-2.808594-.175781-.132813-.328124-.285156-.503906-.414063-1.175781-.832031-2.46875-1.472656-3.847656-1.96875-.296875-.105468-.582031-.183593-.886719-.273437-1.433593-.4375-2.921875-.734375-4.488281-.734375h-352c-1.566406 0-3.054688.296875-4.496094.71875-.296875.089844-.59375.167969-.886718.273438-1.378907.496093-2.671876 1.136718-3.847657 1.96875-.183593.128906-.328125.277343-.503906.414062-1.058594.816406-2 1.761719-2.824219 2.816406-.152344.191406-.3125.351563-.457031.550782-.847656 1.195312-1.503906 2.515624-2.007813 3.914062-.046874.144531-.152343.246094-.199218.390625-.058594.167969-.035156.34375-.082032.511719-.40625 1.425781-.695312 2.890625-.695312 4.441406v.039062.03125 255.929688c0 8.832031 7.167969 16 16 16h48c8.832031 0 16-7.167969 16-16s-7.167969-16-16-16h-32v-208.574219l150.585938 109.511719c2.804687 2.039062 6.109374 3.0625 9.414062 3.0625s6.609375-1.023438 9.414062-3.0625l150.585938-109.511719v208.574219h-224c-8.832031 0-16 7.167969-16 16s7.167969 16 16 16h240c8.832031 0 16-7.167969 16-16v-255.9375c0-.007812 0-.015625 0-.023438zm-192 108.175782-126.800781-92.214844h253.601562zm0 0"/><path d="m304 224c8.832031 0 16-7.167969 16-16s-7.167969-16-16-16h-64c-8.832031 0-16 7.167969-16 16s7.167969 16 16 16zm0 0"/></svg>