<svg height="384pt" viewBox="0 0 384 384" width="384pt" xmlns="http://www.w3.org/2000/svg"><path d="m368 0h-352c-8.832031 0-16 7.167969-16 16v256c0 8.832031 7.167969 16 16 16h48c8.832031 0 16-7.167969 16-16s-7.167969-16-16-16h-32v-224h320v224h-32c-8.832031 0-16 7.167969-16 16v57.375l-68.679688-68.679688c-.746093-.75-1.566406-1.414062-2.457031-2.007812-.375-.253906-.792969-.421875-1.183593-.648438-.519532-.285156-1.015626-.597656-1.566407-.824218-.519531-.214844-1.066406-.335938-1.601562-.496094-.464844-.132812-.902344-.3125-1.382813-.40625-1.03125-.199219-2.082031-.3125-3.128906-.3125h-96c-8.832031 0-16 7.167969-16 16s7.167969 16 16 16h89.375l91.3125 91.3125c3.066406 3.0625 7.144531 4.6875 11.3125 4.6875 2.0625 0 4.144531-.398438 6.128906-1.214844 5.976563-2.480468 9.871094-8.3125 9.871094-14.785156v-80h32c8.832031 0 16-7.167969 16-16v-256c0-8.832031-7.167969-16-16-16zm0 0"/><path d="m128 176c0-8.832031-7.167969-16-16-16h-32c-8.832031 0-16 7.167969-16 16s7.167969 16 16 16h32c8.832031 0 16-7.167969 16-16zm0 0"/><path d="m208 192c8.832031 0 16-7.167969 16-16s-7.167969-16-16-16h-32c-8.832031 0-16 7.167969-16 16s7.167969 16 16 16zm0 0"/><path d="m304 192c8.832031 0 16-7.167969 16-16s-7.167969-16-16-16h-32c-8.832031 0-16 7.167969-16 16s7.167969 16 16 16zm0 0"/></svg>