<svg height="384pt" viewBox="0 -16 384 384" width="384pt" xmlns="http://www.w3.org/2000/svg"><path d="m368 64h-64v-16c0-26.472656-21.527344-48-48-48h-64c-8.832031 0-16 7.167969-16 16s7.167969 16 16 16h64c8.824219 0 16 7.175781 16 16v16h-160v-16c0-8.824219 7.175781-16 16-16 8.832031 0 16-7.167969 16-16s-7.167969-16-16-16c-26.472656 0-48 21.527344-48 48v16h-64c-8.832031 0-16 7.167969-16 16v256c0 8.832031 7.167969 16 16 16h352c8.832031 0 16-7.167969 16-16v-256c0-8.832031-7.167969-16-16-16zm-16 256h-320v-224h320zm0 0"/><path d="m192 120c-48.519531 0-88 39.480469-88 88s39.480469 88 88 88 88-39.480469 88-88-39.480469-88-88-88zm0 144c-30.878906 0-56-25.121094-56-56s25.121094-56 56-56 56 25.121094 56 56-25.121094 56-56 56zm0 0"/><path d="m200 192h-16c-8.832031 0-16 7.167969-16 16s7.167969 16 16 16h16c8.832031 0 16-7.167969 16-16s-7.167969-16-16-16zm0 0"/></svg>