<svg height="384pt" viewBox="-48 0 384 384" width="384pt" xmlns="http://www.w3.org/2000/svg"><path d="m209.847656 279.984375c7.410156 4.800781 17.3125 2.695313 22.136719-4.710937 37.175781-57.242188 56.015625-101.410157 56.015625-131.273438 0-79.398438-64.601562-144-144-144s-144 64.601562-144 144c0 74.375 118.238281 218.113281 131.71875 234.257812 3.042969 3.628907 7.539062 5.742188 12.273438 5.742188h.007812c4.734375 0 9.230469-2.105469 12.273438-5.734375.734374-.875 18.183593-21.785156 40.320312-52.019531 5.214844-7.132813 3.664062-17.148438-3.464844-22.367188-7.152344-5.222656-17.160156-3.664062-22.367187 3.464844-10.386719 14.191406-19.816407 26.398438-26.808594 35.230469-39.816406-50.148438-111.953125-150.863281-111.953125-198.574219 0-61.761719 50.238281-112 112-112s112 50.238281 112 112c0 22.910156-18.0625 63.34375-50.855469 113.847656-4.816406 7.410156-2.703125 17.320313 4.703125 22.136719zm0 0"/><path d="m88 128c0 30.871094 25.121094 56 56 56 30.871094 0 56-25.128906 56-56s-25.128906-56-56-56c-30.878906 0-56 25.128906-56 56zm80 0c0 13.230469-10.769531 24-24 24s-24-10.769531-24-24 10.769531-24 24-24 24 10.769531 24 24zm0 0"/></svg>