<svg height="384pt" viewBox="0 0 384 384" width="384pt" xmlns="http://www.w3.org/2000/svg"><path d="m63.996094 224c0-8.832031-7.167969-16-16-16-8.832032 0-16 7.167969-16 16 0 15.832031 2.28125 31.304688 6.785156 45.976562 2.113281 6.878907 8.449219 11.3125 15.296875 11.3125 1.550781 0 3.136719-.234374 4.695313-.714843 8.449218-2.589844 13.191406-11.535157 10.609374-19.988281-3.578124-11.625-5.386718-23.929688-5.386718-36.585938zm0 0"/><path d="m347.308594 212.6875c-.117188-.121094-.269532-.175781-.390625-.289062-.921875-.871094-1.929688-1.605469-3.007813-2.222657-.230468-.136719-.449218-.289062-.6875-.40625-1.214844-.617187-2.496094-1.074219-3.824218-1.363281-.289063-.0625-.578126-.078125-.863282-.125-1.152344-.183594-2.3125-.25-3.488281-.175781-.28125.015625-.554687.007812-.832031.039062-1.359375.152344-2.703125.488281-4.023438 1-.105468.039063-.21875.039063-.320312.078125-.199219.082032-.34375.234375-.535156.320313-.53125.242187-1.066407.433593-1.570313.738281l-40 24c-7.574219 4.542969-10.03125 14.375-5.488281 21.949219 3 5 8.296875 7.769531 13.738281 7.769531 2.804687 0 5.636719-.734375 8.214844-2.28125l11.917969-7.152344c-13.75 55.839844-64.125 97.433594-124.152344 97.433594-35.726563 0-68.789063-14.335938-93.109375-40.359375-6.039063-6.472656-16.160157-6.800781-22.617188-.769531s-6.800781 16.160156-.765625 22.609375c30.4375 32.582031 71.804688 50.519531 116.492188 50.519531 76.273437 0 140.25-53.648438 156.1875-125.183594l8.503906 8.503906c6.246094 6.246094 16.375 6.246094 22.621094 0 6.25-6.25 6.25-16.375 0-22.625zm0 0"/><path d="m325.230469 103.425781c-8.457031 2.589844-13.199219 11.535157-10.609375 19.988281 3.570312 11.625 5.375 23.9375 5.375 36.585938 0 8.832031 7.167968 16 16 16 8.832031 0 16-7.167969 16-16 0-15.832031-2.277344-31.304688-6.78125-45.976562-2.585938-8.449219-11.527344-13.191407-19.984375-10.597657zm0 0"/><path d="m4.6875 116.6875c-6.25 6.25-6.25 16.375 0 22.625l32 32c.039062.039062.09375.070312.132812.113281.210938.199219.441407.34375.65625.535157.738282.648437 1.511719 1.230468 2.335938 1.726562.351562.207031.714844.382812 1.074219.570312.785156.390626 1.582031.710938 2.414062.964844.359375.113282.707031.242188 1.074219.320313 1.160156.273437 2.335938.441406 3.535156.449219.03125 0 .0625.007812.097656.007812.046876 0 .085938-.015625.132813-.015625 1.203125-.007813 2.394531-.191406 3.578125-.480469.382812-.089844.742188-.214844 1.121094-.34375.421875-.136718.855468-.214844 1.269531-.382812.335937-.144532.601563-.394532.921875-.554688.390625-.191406.808594-.277344 1.191406-.511718l40-24c7.574219-4.542969 10.03125-14.375 5.488282-21.949219-4.546876-7.570313-14.375-10.042969-21.953126-5.488281l-11.917968 7.167968c13.757812-55.847656 64.125-97.441406 124.15625-97.441406 35.730468 0 68.792968 14.335938 93.105468 40.359375 6.054688 6.472656 16.167969 6.808594 22.617188.769531 6.464844-6.03125 6.808594-16.160156.773438-22.617187-30.4375-32.566407-71.804688-50.511719-116.496094-50.511719-76.269532 0-140.246094 53.648438-156.183594 125.183594l-8.503906-8.503906c-6.238282-6.238282-16.382813-6.238282-22.621094.007812zm0 0"/></svg>