<svg height="384pt" viewBox="0 0 384 384" width="384pt" xmlns="http://www.w3.org/2000/svg"><path d="m124.320312 286.65625c.734376.097656 1.464844.144531 2.175782.144531 7.871094 0 14.742187-5.824219 15.832031-13.839843 1.191406-8.761719-4.9375-16.824219-13.695313-18.007813-55.097656-7.488281-96.632812-55.191406-96.632812-110.953125 0-61.761719 50.238281-112 112-112s112 50.238281 112 112c0 45.535156-27.144531 86.144531-69.136719 103.449219-8.167969 3.367187-12.0625 12.71875-8.703125 20.886719 3.367188 8.167968 12.726563 12.054687 20.886719 8.695312 12.761719-5.253906 24.410156-12.238281 34.832031-20.527344l122.800782 122.808594c3.136718 3.128906 7.222656 4.6875 11.320312 4.6875s8.183594-1.558594 11.3125-4.6875c6.246094-6.25 6.246094-16.375 0-22.625l-122.761719-122.765625c19.945313-24.945313 31.449219-56.378906 31.449219-89.921875 0-79.398438-64.601562-144-144-144s-144 64.601562-144 144c0 71.695312 53.449219 133.023438 124.320312 142.65625zm0 0"/></svg>