<svg height="383pt" viewBox="0 0 383 383.98119" width="383pt" xmlns="http://www.w3.org/2000/svg"><path d="m7.945312 133.507812 148.945313 94.074219 94.074219 148.941407c2.957031 4.683593 8.085937 7.457031 13.527344 7.457031.726562 0 1.472656-.046875 2.207031-.152344 6.214843-.863281 11.359375-5.285156 13.144531-11.3125l104-352c.199219-.6875.28125-1.382813.390625-2.070313.039063-.238281.105469-.457031.136719-.695312.175781-1.542969.089844-3.058594-.175782-4.542969-.046874-.289062-.113281-.570312-.183593-.859375-.359375-1.527344-.90625-2.992187-1.679688-4.34375-.039062-.0625-.039062-.132812-.082031-.199218-.304688-.503907-.664062-.953126-1.015625-1.414063-.167969-.226563-.304687-.464844-.488281-.679687-.621094-.746094-1.296875-1.417969-2.023438-2.027344-.183594-.152344-.382812-.261719-.574218-.40625-.59375-.449219-1.203126-.871094-1.847657-1.230469-.28125-.160156-.578125-.289063-.875-.425781-.628906-.304688-1.269531-.566406-1.925781-.792969-.160156-.054687-.304688-.144531-.472656-.191406-.152344-.046875-.304688-.046875-.449219-.085938-.703125-.1875-1.414063-.3125-2.136719-.410156-.277344-.03125-.558594-.0859375-.839844-.1132812-.863281-.046875-1.734374-.0390626-2.605468.0507812-.105469.0078125-.21875 0-.328125.0078125-.90625.1015625-1.816407.2890625-2.710938.5507815l-352 104c-6.027343 1.785156-10.449219 6.921875-11.3125 13.144531-.867187 6.214844 1.992188 12.367188 7.300781 15.726562zm304.746094-84.359374-67.511718 67.519531c-6.25 6.25-6.25 16.378906 0 22.625 6.238281 6.25 16.382812 6.25 22.625 0l67.519531-67.519531-76.167969 257.800781-70.3125-111.320313 30.960938-30.960937c6.246093-6.246094 6.246093-16.375 0-22.625-6.242188-6.246094-16.386719-6.246094-22.625 0l-30.960938 30.953125-111.320312-70.304688zm0 0"/></svg>