<svg height="384pt" viewBox="0 0 384.00628 384" width="384pt" xmlns="http://www.w3.org/2000/svg"><path d="m247.988281 272.003906c4.945313 0 9.824219-2.28125 12.953125-6.585937 5.199219-7.152344 3.625-17.160157-3.519531-22.351563-17.640625-12.832031-39.039063-19.0625-65.425781-19.0625-26.382813 0-47.78125 6.230469-65.414063 19.0625-7.144531 5.191406-8.71875 15.199219-3.519531 22.351563 5.191406 7.152343 15.199219 8.730469 22.351562 3.519531 11.960938-8.703125 27.199219-12.933594 46.582032-12.933594 19.386718 0 34.625 4.230469 46.585937 12.933594 2.847657 2.074219 6.136719 3.066406 9.40625 3.066406zm0 0"/><path d="m59.09375 177.460938c5.222656 7.132812 15.230469 8.664062 22.359375 3.453124 30.609375-22.421874 74-36.910156 110.542969-36.910156 36.546875 0 79.9375 14.488282 110.546875 36.902344 2.847656 2.089844 6.160156 3.097656 9.4375 3.097656 4.929687 0 9.785156-2.265625 12.921875-6.542968 5.222656-7.128907 3.671875-17.144532-3.457032-22.363282-36.28125-26.582031-85.886718-43.09375-129.449218-43.09375-43.558594 0-93.167969 16.511719-129.453125 43.09375-7.128907 5.21875-8.671875 15.234375-3.449219 22.363282zm0 0"/><path d="m103.667969 28.988281c2.136719 8.566407 10.800781 13.832031 19.394531 11.65625 23.046875-5.738281 46.238281-8.640625 68.933594-8.640625 58.738281 0 121.007812 19.792969 166.59375 52.933594 2.839844 2.074219 6.128906 3.066406 9.398437 3.066406 4.945313 0 9.824219-2.28125 12.953125-6.585937 5.199219-7.152344 3.625-17.160157-3.527344-22.351563-50.847656-36.984375-120.160156-59.06249975-185.417968-59.06249975-25.300782 0-51.09375 3.22265575-76.664063 9.58984375-8.574219 2.136719-13.796875 10.816406-11.664062 19.394531zm0 0"/><path d="m41.164062 37.609375c-12.175781 6.433594-23.796874 13.640625-34.550781 21.433594-7.160156 5.183593-8.75 15.183593-3.566406 22.34375 3.117187 4.320312 8.007813 6.617187 12.957031 6.617187 3.257813 0 6.539063-.984375 9.378906-3.039062 9.535157-6.914063 19.878907-13.328125 30.726563-19.058594 7.816406-4.136719 10.800781-13.816406 6.671875-21.625-4.136719-7.8125-13.824219-10.789062-21.617188-6.671875zm0 0"/><path d="m206.140625 340.59375c-.039063-.023438-.078125-.039062-.109375-.0625-.027344-.023438-.050781-.046875-.074219-.070312-7.953125-5.632813-18.429687-6.066407-27.335937-.289063-.246094.160156-.511719.246094-.75.421875-.042969.035156-.074219.074219-.113282.105469-.039062.03125-.089843.046875-.128906.078125-.238281.1875-.40625.417968-.640625.609375-.621093.535156-1.238281 1.082031-1.765625 1.679687-4.554687 4.511719-7.226562 10.464844-7.226562 16.9375 0 13.230469 10.769531 24 24 24 13.234375 0 24-10.769531 24-24 0-6.28125-2.527344-12.089844-7.0625-16.738281-.816406-.972656-1.71875-1.886719-2.792969-2.671875zm0 0"/></svg>